<?xml version="1.0" encoding="UTF-8" standalone="no"?>
<!-- Created with Inkscape (http://www.inkscape.org/) -->

<svg
   width="3200"
   height="800"
   id="svg2825"
   version="1.1"
   inkscape:version="1.1.2 (b8e25be833, 2022-02-05)"
   sodipodi:docname="FroheOstern.svg"
   xmlns:inkscape="http://www.inkscape.org/namespaces/inkscape"
   xmlns:sodipodi="http://sodipodi.sourceforge.net/DTD/sodipodi-0.dtd"
   xmlns="http://www.w3.org/2000/svg"
   xmlns:svg="http://www.w3.org/2000/svg"
   xmlns:rdf="http://www.w3.org/1999/02/22-rdf-syntax-ns#"
   xmlns:cc="http://creativecommons.org/ns#"
   xmlns:dc="http://purl.org/dc/elements/1.1/">
  <defs
     id="defs2827">
    <inkscape:perspective
       sodipodi:type="inkscape:persp3d"
       inkscape:vp_x="0 : 526.18109 : 1"
       inkscape:vp_y="0 : 1000 : 0"
       inkscape:vp_z="744.09448 : 526.18109 : 1"
       inkscape:persp3d-origin="372.04724 : 350.78739 : 1"
       id="perspective2833" />
    <pattern
       id="EMFhbasepattern"
       patternUnits="userSpaceOnUse"
       width="6"
       height="6"
       x="0"
       y="0" />
  </defs>
  <sodipodi:namedview
     id="base"
     pagecolor="#ffffff"
     bordercolor="#666666"
     borderopacity="1.0"
     inkscape:pageopacity="0.0"
     inkscape:pageshadow="2"
     inkscape:zoom="0.5"
     inkscape:cx="1895.5166"
     inkscape:cy="402.93032"
     inkscape:document-units="px"
     inkscape:current-layer="layer1"
     showgrid="false"
     inkscape:window-width="1920"
     inkscape:window-height="1017"
     inkscape:window-x="-8"
     inkscape:window-y="-8"
     inkscape:window-maximized="1"
     inkscape:pagecheckerboard="0">
    <inkscape:grid
       type="xygrid"
       id="grid3332" />
  </sodipodi:namedview>
  <metadata
     id="metadata2830">
    <rdf:RDF>
      <cc:Work
         rdf:about="">
        <dc:format>image/svg+xml</dc:format>
        <dc:type
           rdf:resource="http://purl.org/dc/dcmitype/StillImage" />
      </cc:Work>
    </rdf:RDF>
  </metadata>
  <g
     inkscape:label="Layer 1"
     inkscape:groupmode="layer"
     id="layer1"
     transform="translate(0,-252.36218)"
     style="display:inline">
    <path
       style="fill:none;stroke:#0d100f;stroke-width:3.58824;stroke-miterlimit:4;stroke-dasharray:none"
       d="m 1780.4633,301.95355 c -8.3189,-12.60283 -3.6959,-40.73462 11.5924,-52.17185 9.9278,-7.4265 35.9553,-17.22818 43.9351,-2.17956 3.0419,5.73655 -0.5267,11.82614 -4.799,15.5417 -11.6954,10.16977 -28.6284,10.23112 -39.9626,21.78177 -4.2966,4.37881 -10.1744,15.74543 -10.583,19.34293 -1.029,9.06551 4.7168,18.8452 9.5517,27.77992 1.6216,2.99676 2.5337,6.23312 4.8024,8.71479 2.3984,2.62289 5.4738,3.70168 8.613,5.50853 8.6025,4.95177 16.6343,13.29385 20.2932,22.81657 9.7519,25.38275 -6.7517,57.72089 -29.5532,70.245 -4.6578,2.55807 -8.2449,3.3359 -12.7325,4.53623 -2.8613,0.7651 -5.1717,1.85662 -8.1025,2.38213 -9.7021,1.73856 -22.6904,0.96072 -32.4099,-1.3508 -35.5247,-8.44973 -39.8456,-51.84312 -20.2388,-78.12755 2.4377,-3.26761 5.2909,-6.43916 7.5943,-9.25997 1.6402,-2.00942 3.3753,-3.97138 4.8141,-6.94498 1.9608,-4.05009 2.359,-6.70886 3.9725,-11.57497 2.4608,-7.42766 3.8603,-12.73362 2.0522,-18.51995 -1.3704,-4.38459 -3.1935,-6.49703 -6.0479,-10.41747 -11.2809,-15.49656 -30.1504,-15.83455 -45.39,-24.7276 -6.8733,-4.01072 -13.3356,-12.74404 -7.5076,-20.29323 6.4218,-8.32008 18.0767,-7.52141 27.1838,-5.1798 12.663,3.25604 24.1662,10.45914 30.3021,22.42071 6.3906,12.45814 6.4519,28.90038 2.1078,37.0399 m 203.7194,-61.34733 h 1.1575 m 1.1575,101.85971 -5.7874,5.78748 c -11.1317,-10.89436 -24.4973,-17.88795 -39.3549,-22.31538 -12.7047,-3.78732 -28.2545,-5.60228 -35.6185,-18.19816 -11.0564,-18.91349 11.7683,-24.2565 25.201,-18.15765 24.2206,10.99738 40.3955,32.02909 55.5598,52.88371 m 68.2923,-52.08735 c 1.4469,-1.03827 2.2919,-2.88795 6.945,-3.20279 10.6143,-0.71881 39.9684,11.28212 36.6464,26.33189 -1.2501,5.70414 -8.4961,8.1754 -13.3923,5.59649 -8.2066,-4.32093 -13.9247,-18.34632 -22.0966,-23.27262 -4.6068,-2.78147 -5.6717,-3.89382 -10.4175,-4.25843 -4.1091,-0.316 -9.7345,1.27903 -12.7324,3.01643 -5.6254,3.2734 -11.9454,11.52057 -15.0822,17.78147 -11.6919,23.36985 -5.1509,48.45396 3.1484,71.76479 5.5097,15.47457 14.6771,26.89096 14.2488,39.35488 -8.0215,-3.12408 -14.5613,-10.51007 -26.6224,-15.70954 -10.1374,-4.37071 -25.4326,-7.85593 -35.8824,-7.39525 -3.3753,0.14932 -6.0086,0.24539 -9.157,1.70615 -4.0917,1.89945 -7.0133,5.64859 -10.5251,8.86295 -7.7795,7.12092 -24.8897,34.26538 -38.0261,24.57018 -8.3039,-6.1301 -1.7004,-18.08125 4.4807,-22.99714 12.0715,-9.59796 33.153,-14.38537 41.6525,-9.87229 M 1632.3038,319.316 v 10.41747 m 101.8597,20.83494 c 9.1882,-2.18304 19.1901,-8.78193 33.5674,-10.21954 9.231,-0.92368 18.5419,0.71186 24.3074,0.95956 m -185.1995,2.315 h 11.575 m 27.7799,0 h 11.575 m -25.4649,15.04745 v 10.41747 m 409.7538,100.70221 c -8.716,-26.77984 -16.2976,-60.06713 0.1041,-85.65475 9.3063,-14.50807 31.2756,-28.08666 48.5107,-20.43098 4.3406,1.92724 9.2716,5.35227 11.494,8.90231 1.4005,2.25365 1.8867,4.7168 3.484,7.75639 2.0025,3.84173 4.5258,4.97029 6.1,9.56555 3.0327,8.88378 6.2852,36.01666 -4.9772,41.40597 -6.9913,3.34401 -12.1884,-5.45991 -11.656,-11.31685 1.3196,-14.53237 6.3778,-29.12608 10.6027,-37.03989 m -158.5771,-20.83494 c -0.027,6.30026 3.197,10.55753 6.945,19.67744 m -12.7324,-16.20495 4.6299,2.31499 m -163.207,12.73247 c 1.6587,-10.40474 8.1812,-9.57366 15.0475,-3.47249 m 116.9071,3.47249 c -7.5492,5.00386 -18.9169,6.89173 -31.2524,15.37387 -5.5525,3.81858 -15.0509,10.81217 -21.8385,5.91944 -16.6135,-11.97778 9.1304,-26.98704 19.5235,-28.85755 7.8803,-1.41909 19.7735,0.56486 26.6051,2.98518 4.0721,1.44224 5.042,3.16923 9.3803,5.27356 4.6648,2.26059 13.3124,5.33953 17.2595,7.40797 m -193.302,2.315 c 2.7144,-10.36075 9.9661,-10.05518 16.205,-2.315 m 23.1499,20.83494 c -0.897,4.14037 -2.8972,7.92423 -3.2861,11.57497 -1.014,9.51925 3.212,12.99984 3.2861,21.99244 m -13.8899,-28.93742 8.1024,5.78748 m 401.6514,13.88996 v 10.41747 m -172.467,-2.31499 c 2.8706,6.64056 6.1579,10.07716 9.503,16.20495 7.1302,13.0855 12.1074,27.87368 14.1331,42.82738 1.0649,7.80615 0.3009,28.65035 -1.8057,34.67281 -1.2849,3.65885 -3.0327,4.55012 -4.468,5.83957 -0.9839,-1.84042 -1.9909,-3.34864 -2.2571,-6.95077 -0.2894,-4.07439 -1.2385,-13.61795 -2.778,-18.51416 -3.0789,-9.82136 -9.5493,-21.72737 -17.1541,-28.3795 -3.3104,-2.89374 -6.5398,-3.66811 -10.0239,-5.97384 -3.8197,-2.52913 -4.8268,-4.14615 -9.4568,-5.73887 -10.8885,-3.73871 -41.5089,-4.23759 -46.3762,10.01466 -3.0836,9.02848 7.5665,14.85647 15.1238,13.61216 6.8374,-1.12624 12.3204,-6.88247 18.52,-9.78316 10.5332,-4.92515 15.0243,-4.59294 20.8349,-8.47635 m 163.207,-21.99243 h 10.4175 m 28.9374,0 h 10.4175 m -99.5447,54.40234 c -2.778,-1.43645 -4.3753,-3.10904 -7.1881,-6.95077 -5.5559,-7.6198 -16.4596,-17.20734 -21.923,-25.45914 -4.4447,-6.73663 -3.0673,-15.32294 5.9612,-16.85546 16.3901,-2.78147 22.0271,25.27394 23.636,36.53291 0.9492,6.61509 -0.023,9.79358 0.035,15.04745 0.046,4.36145 -0.1042,7.02369 -0.4167,11.57497 -1.5048,21.9554 -11.112,44.70715 -27.8841,59.99189 -26.8887,24.48684 -70.3295,30.29285 -105.3322,30.29285 -14.566,0 -32.5326,-0.65862 -46.2999,-4.83139 -5.5375,-1.67722 -5.6659,-3.0558 -10.4175,-5.24346 -3.969,-1.82769 -10.8434,-3.51764 -17.3624,-3.81511 m -52.0876,-131.95462 c 1.3971,-0.80446 3.2896,-2.57311 6.8999,-2.74674 4.3603,-0.21066 7.4994,5.74697 4.6381,8.87221 -1.9134,2.09044 -4.7955,0.34957 -6.776,-1.07068 -2.4203,-1.73509 -3.7526,-3.7989 -4.762,-5.05479 m -63.6623,10.41747 c 7.151,-1.22695 12.0403,-2.40412 20.835,-3.96327 16.7385,-2.9655 29.9467,-6.45304 42.8273,-6.4542 m 334.5166,1.1575 v 10.41747 m -368.084,-5.78749 c 0,11.71503 0,30.46647 0.1609,42.82738 0.057,4.29894 -0.1609,10.26584 -0.1609,15.04746 v 49.77235 27.77992 c 5.9438,-0.0486 17.3393,-1.90871 25.465,-4.02693 3.403,-0.8878 5.9287,-1.51169 8.9382,-3.57551 3.4597,-2.37171 2.9377,-4.00146 5.5397,-7.34663 5.666,-7.28181 7.2136,-4.7168 7.5145,-13.98835 m -70.6073,-101.8597 v 32.40991 70.60729 32.40991 c 6.9867,-0.0579 16.2003,-1.97353 21.9924,-3.47249 m -57.8748,9.25997 c -6.4148,0.81025 -9.2877,1.14476 -13.8899,1.1575 v -34.7249 -72.92229 c 0,-6.00278 -0.041,-12.58083 0,-18.51995 0.016,-2.41916 -0.3021,-5.4194 1.1888,-7.50752 2.6553,-3.71904 9.2009,-3.47596 13.8575,-4.06744 m -59.0323,9.25997 c 13.7684,-0.59148 32.6437,-5.75623 43.9849,-5.78748 m -26.6225,4.62998 c 0,16.04291 -0.1748,40.97423 -0.1748,57.87484 0,14.04274 0.1748,29.368 0.1748,43.98487 v 32.4099 c 8.2588,-0.0231 19.0084,-1.88209 25.465,-3.47249 m -134.2697,-114.59216 59.0324,-9.25998 m -13.89,3.47249 c 0,15.58454 0.1748,39.194 0.1748,55.55984 0,13.66193 -0.1748,28.59248 -0.1748,42.82738 0,8.91735 -3.2317,25.26352 0.698,33.19816 2.2455,4.53275 10.6374,1.32996 14.3495,0.36924 M 1854.542,505.67295 c -0.1852,5.14971 -0.2245,17.25944 0,21.99244 m -237.2868,-17.36245 v 31.25241 70.60729 32.40991 c 7.533,-0.0625 19.6265,-1.08573 27.7799,-5.78748 M 1853.3856,523.0354 c -4.1126,-1.38552 -5.2701,-2.22702 -9.26,-5.78748 4.0142,-3.49448 5.2088,-4.20866 9.26,-5.78748 m 270.8542,59.03233 c -3.5998,-5.34995 -1.6899,-9.82599 -0.6829,-16.20496 1.5742,-10.01929 -1.088,-20.28513 1.7478,-30.09375 2.859,-9.86187 12.663,-11.81457 19.2723,-3.42272 11.957,15.18636 -5.1392,38.69048 -16.7605,48.01527 -4.3869,3.52458 -7.1533,3.63223 -11.6792,6.74127 -4.5836,3.14376 -9.885,6.98317 -13.8899,8.85484 m -292.8467,-62.50481 c 8.1824,-0.64704 26.1838,-4.60684 34.7249,-4.62999 m -298.6341,131.95462 c 8.0863,-28.08087 11.4303,-54.44286 2.2814,-83.33976 -5.3893,-17.0233 -19.5767,-33.07894 -28.9038,-41.66988 8.1233,-5.84304 26.3863,-3.27803 38.1974,2.62752 16.8566,8.43005 28.1144,25.27162 30.757,43.67235 3.2768,22.82699 -2.6588,46.67026 -16.8844,64.81981 -5.9912,7.6441 -17.4389,19.79319 -25.4476,13.88996 -2.1147,4.36607 -1.0325,5.94027 3.4725,4.62998 m -67.1348,-118.06465 c 5.3233,7.16143 -4.1334,25.68369 -4.5849,35.88239 -0.8241,18.66348 1.9493,36.6012 7.4034,54.40234 3.9413,12.86442 12.1803,19.04777 9.914,28.93742 -5.7297,-1.17486 -11.097,1.6911 -11.575,10.41747 -11.1166,-2.16336 -21.0259,-7.12787 -29.1817,-18.51995 -10.3665,-14.47912 -13.5473,-35.97615 -10.8226,-53.24484 3.4864,-22.09314 16.8335,-44.61918 35.3743,-56.66525 4.3487,-2.82545 6.1208,-2.48399 10.4175,-4.31746 5.2527,-2.24207 11.1559,-6.53407 17.3624,-7.86751 4.6277,-0.99544 7.9891,-0.90284 11.575,-1.75708 m -30.0949,11.57497 -1.1575,4.62999 m 534.7634,3.47249 c -7.0954,20.77938 -22.6175,39.31784 -48.6148,50.4356 -11.8898,5.08372 -24.3075,8.24369 -37.0399,10.22879 -4.079,0.63547 -13.0091,1.07416 -16.176,1.78718 -3.292,0.74195 -4.3337,1.56493 -5.8165,2.36824 m -532.4484,11.57496 c 2.8127,-8.49602 11.1988,-17.78377 11.5576,-32.4099 0.4155,-16.9064 -4.755,-24.60491 -11.5576,-33.5674 11.0981,-5.44487 33.8521,8.54232 32.3057,30.09491 -0.757,10.54942 -6.5966,21.42526 -13.8853,28.8344 -4.1381,4.20518 -6.6383,7.73439 -12.6503,8.09784 -3.2583,0.19678 -5.042,-0.81372 -7.8675,0.67251 -3.4077,1.79065 -2.4932,5.02122 -1.4631,7.54225 2.1877,5.34879 8.1546,13.39455 11.6919,18.51531 9.4822,13.7256 20.7389,26.61664 33.5385,37.32464 6.2574,5.23536 14.1342,14.26499 21.9924,10.13272 l 1.1575,1.1575 v 1.1575 l -3.4725,1.15749 m -78.7098,-9.25997 -9.2599,1.1575 c -2.4829,-8.3988 -1.1575,-19.26538 -1.1575,-30.09491 0,-11.56571 0.1747,-23.71711 0.1747,-34.7249 0,-11.38514 -0.1747,-23.93703 -0.1747,-35.8824 0,-9.19052 -3.1137,-24.17663 0.6979,-32.04645 1.8335,-3.78386 8.6211,-3.74219 13.192,-4.30705 5.0004,-0.61694 8.9394,-0.36924 12.7325,-0.68639 m 266.2242,9.25997 c 10.039,-0.0278 51.4588,-7.67767 61.3473,-8.10247 m -354.1939,135.4271 c -6.5538,3.77923 -13.7488,4.60684 -21.9925,4.62999 v -33.5674 -70.6073 c 0,-8.34323 -2.7548,-21.44494 0.698,-28.57396 1.3057,-2.69581 4.6219,-3.03959 7.4057,-3.54541 6.1173,-1.11236 9.5945,-1.41215 13.8888,-1.44803 m 858.8625,2.31499 h 1.1575 m -893.5874,2.315 11.5749,-1.1575 m -38.1974,19.67744 c -3.7097,-2.54302 -7.8663,-2.45621 -7.8628,-7.97862 0,-2.83934 6.2805,-5.83379 8.9879,-2.7942 4.2805,4.80361 0.9457,10.25774 1.1899,15.40281 m 824.1376,-15.04746 -1.1575,4.62999 m -858.8625,136.5846 c -1.5244,0.43406 -5.7076,2.27911 -8.07,-0.69913 -2.3845,-3.00486 -1.1899,-7.71587 -1.1899,-12.03333 v -40.51238 c 0,-8.89884 -0.028,-19.00841 0,-27.77992 0.012,-3.37642 0.1736,-5.98658 0.1736,-9.25998 0,-5.52936 -0.1747,-11.74974 -0.1747,-18.51994 0,-6.83849 -2.0465,-18.56393 0.5232,-23.95671 2.2756,-4.77467 14.3969,-5.30944 20.3117,-6.22617 5.1323,-0.79636 8.1638,-0.56949 12.7325,-1.06953 m -33.5674,140.05709 c -6.614,4.8939 -15.0822,4.53854 -23.15,6.94498 -2.646,-8.95324 -1.1575,-22.01443 -1.1575,-33.5674 v -68.2923 c 0,-10.08064 -2.3288,-23.02956 0.3681,-32.24323 1.0395,-3.55004 4.4888,-4.09291 7.7356,-4.79204 6.4623,-1.39246 9.9162,-2.00362 13.8888,-2.31962 m -28.9374,4.62999 h 6.9449 m 900.5324,17.36245 c 7.1302,-4.71449 20.2562,-6.16367 31.2524,-0.37735 5.6718,2.98171 15.279,13.61216 6.6788,18.86488 -9.1558,5.59418 -20.2909,-8.0608 -27.5137,-12.1051 -4.9078,-2.74905 -7.8478,-4.98533 -12.7325,-5.00848 -4.3869,-0.022 -11.9338,2.84512 -15.0474,4.41353 m -253.4918,-8.10248 c -0.02,5.65206 -3.2039,10.73463 -9.26,11.57497 m -550.9684,-2.31499 c -1.8902,6.30488 -9.5609,9.76695 -17.3624,10.93718 -9.0817,1.36238 -21.0132,3.99452 -26.6224,4.11027 m 43.9848,-9.25997 v 15.04746 m -9.2599,-10.41747 c 3.1136,3.66 3.5188,4.11837 6.9449,6.94498 m 484.9911,-1.1575 5.7875,-1.1575 m -391.2338,1.1575 c 5.3325,4.34293 10.9209,9.16969 16.4989,17.36245 8.3583,12.27872 14.5081,25.93487 22.8895,38.19739 3.5628,5.21336 9.8075,12.0044 13.8043,16.19916 3.6994,3.8834 4.5096,5.20527 5.8396,6.95077 h -6.945 m -90.2836,-74.07978 c 7.6163,-0.0625 12.7706,-1.96775 20.8349,-2.315 m 319.4691,10.41747 c 6.5109,-0.51856 8.9937,-1.34732 12.7324,-2.31499 m 390.0764,5.78748 c 2.7896,0 7.0492,-0.51856 10.2207,0.68177 6.9218,2.62289 6.482,4.23296 12.9292,9.7357 6.1463,-7.23782 3.6461,-8.4532 9.5725,-12.62829 3.2526,-2.28258 7.1881,-2.26406 8.9475,-2.41916 m -28.9374,4.62998 c 4.8036,-2.57427 10.5448,-3.22941 16.2049,-3.47249 m -963.0372,8.10248 v 10.41747 m 441.0062,-3.47249 11.575,-2.31499 m 504.6685,1.15749 c 1.3775,7.43692 1.7942,16.97353 2.4192,25.46493 1.4006,19.09522 3.1831,40.14082 5.3476,59.03233 0.4052,3.49332 0.046,5.95647 0.3589,9.25997 0.243,2.56964 0.8102,4.55591 1.0186,6.94498 0.8449,9.8283 3.0673,23.5701 1.2732,30.09491 -8.4844,-3.25951 -16.8531,-10.9395 -26.6224,-18.75144 -19.9553,-15.96072 -40.1189,-31.66332 -60.1898,-47.4701 -10.6374,-8.37217 -18.8788,-15.58569 -26.6225,-19.43321 -0.8218,2.77568 -1.1343,5.29555 -1.1575,9.25997 -0.023,5.80485 1.0765,13.6874 1.1575,19.67745 0.1852,16.12392 2.315,42.83895 2.315,55.55984 9.5378,2.1622 8.0794,4.24222 16.286,8.59441 4.4448,2.35319 5.3476,4.2075 8.1604,6.94961 7.2806,7.08619 9.8734,14.53584 12.5935,19.18087 6.6903,-6.02708 7.1649,-22.47858 -2.6969,-33.45975 -9.7693,-10.87468 -19.3418,-5.01659 -21.6105,2.20735 m -16.205,-87.96975 c -2.1298,-7.19847 -2.2571,-17.12285 -2.315,-28.93741 -0.012,-2.9632 -1.0533,-11.18837 1.5742,-11.67104 2.9169,-0.53708 5.3477,2.19693 7.6858,4.06513 6.5514,5.23188 13.2071,11.00084 19.6775,16.38667 19.7469,16.43646 39.3548,33.05116 59.0323,49.5698 9.1326,7.66494 17.7328,15.02778 24.3074,19.20171 m -630.8356,-87.96974 c 2.4261,2.42611 4.5501,4.4471 6.916,6.95076 1.4295,1.51401 3.2746,3.49101 4.5744,5.7817 2.256,3.97831 2.359,4.46909 3.1773,9.25997 1.4967,8.75415 0.1899,15.67251 -3.4817,21.98781 -1.6726,2.87753 -2.3196,5.1115 -4.5906,7.19384 -4.6995,4.3082 -16.389,6.69264 -22.8004,5.97152 -10.5494,-1.18527 -18.4991,-5.29091 -27.7799,-9.68824 m 57.8748,-34.7249 c 1.2258,-0.23266 2.1946,-0.52666 3.6577,-0.58338 10.039,-0.38545 17.2895,-3.49217 28.7522,-8.67659 m -34.7249,8.10247 c -1.7802,2.11243 -3.403,3.23752 -9.26,3.45281 -6.0317,0.22224 -8.8583,1.23042 -15.0474,-2.29531 m -344.934,0 h 12.7325 m 26.6224,0 h 11.5749 m 743.1129,69.4498 c 2.8567,-8.96597 11.3863,-20.36268 11.5703,-35.8824 0.1898,-15.93526 -6.7598,-23.32124 -12.7278,-30.09491 7.2656,-3.56509 20.1242,-0.50004 28.2915,10.4221 4.8395,6.4704 4.3267,14.27772 4.101,21.9878 -0.2905,9.8804 -6.4206,19.45405 -13.0461,26.42565 -2.4504,2.58006 -4.3244,4.60568 -7.1047,6.48893 -2.1564,1.4596 -3.9344,1.65175 -6.4589,1.73393 -3.1599,0.10417 -7.0885,-1.03249 -9.0053,2.8648 -2.7745,5.6428 4.3603,12.22895 8.2379,18.04653 10.958,16.43645 23.8178,31.8682 38.9695,44.63423 3.9586,3.33475 12.825,12.31113 18.4273,11.23813 8.334,-1.59734 -7.7784,-16.8925 -9.9197,-19.98996 -8.4845,-12.26715 -14.8681,-25.81681 -23.1743,-38.19739 -5.7111,-8.51455 -11.1374,-13.75685 -16.5858,-18.51995 m -31.2524,68.2923 c -12.7602,1.97817 -8.1024,-19.96681 -8.1024,-28.93741 0,-11.56571 0.1747,-23.71711 0.1747,-34.7249 0,-12.14214 -0.1747,-25.48923 -0.1747,-38.19739 0,-8.6384 -2.91,-22.34779 0.6979,-29.72799 1.859,-3.80121 9.5725,-3.75607 14.3495,-3.83594 5.0467,-0.0845 7.5967,-0.48962 10.4175,-1.16097 m -441.0062,1.1575 c 2.5372,7.28875 13.5438,18.04884 17.3624,26.62242 m 398.1789,108.80468 c -7.3397,4.23297 -14.3449,3.81511 -20.835,5.78749 -2.5384,-8.58863 -1.1575,-20.17748 -1.1575,-31.25241 v -71.76479 c 0,-8.96481 -3.0234,-23.2055 0.698,-30.88896 1.4029,-2.89605 5.512,-3.23867 8.562,-3.68431 5.8326,-0.85192 8.694,-1.22579 12.7325,-1.30913 m -33.5674,4.62999 11.5749,-1.1575 m -38.1974,17.36245 c -0.9526,-0.55097 -2.7502,-1.20148 -4.608,-2.90416 -1.6737,-1.53484 -3.9065,-3.53499 -3.0939,-5.99352 1.1528,-3.48985 8.2737,-4.7249 9.6477,-0.17362 1.2478,4.13226 0.1713,7.62096 0.3692,11.38629 m -682.923,-13.88996 v 10.41747 m 673.6631,125.00964 c 2.161,-6.51555 3.9551,-9.58176 10.4174,-12.73246 0.742,2.51177 3.9019,12.09699 -4.652,13.59827 -2.5071,0.43985 -4.8232,-0.037 -8.0804,0.76973 -3.1322,0.77553 -5.144,1.86126 -8.1025,2.65993 -8.2692,2.22934 -19.5513,3.20048 -25.4649,4.9645 -2.5384,-8.58862 -1.1575,-20.17748 -1.1575,-31.25241 0,-24.04236 0.028,-48.76533 0,-71.76479 -0.012,-9.22409 -3.1137,-24.17663 0.6979,-32.04645 1.7421,-3.59518 10.0355,-4.1311 14.3495,-4.99344 8.929,-1.78486 11.9257,-1.48275 19.6775,-2.31499 m -34.7249,141.21459 c -3.7816,2.18072 -6.2806,2.88911 -12.7325,4.16698 -3.0211,0.59843 -7.9751,2.34857 -9.7195,-1.07994 -3.8313,-7.53183 -0.698,-23.51917 -0.698,-32.02446 v -71.76479 c 0,-8.33513 -2.705,-21.44262 0.698,-28.58669 1.4272,-2.99445 5.3974,-3.40304 8.562,-4.05356 6.2875,-1.29292 9.4649,-1.89366 13.89,-2.08465 m -468.7862,4.62999 -10.4174,3.47249 m 449.1087,-3.47249 h 6.9449 m -28.9374,21.99243 c -6.6058,-4.89736 -9.5702,-7.60243 -12.7324,-11.57496 l 5.8164,-2.83703 7.3755,0.5556 1.8381,6.91257 0.017,9.25882 m -37.0399,118.06465 h -8.1025 v -30.09491 -64.81981 c 0,-9.24608 -3.1426,-24.1176 0.698,-32.04645 1.9863,-4.09986 11.4766,-4.30126 16.6645,-4.79667 5.8002,-0.55444 8.6766,-0.19677 12.7325,-0.19677 m -99.5448,39.35488 c 0.47,-2.51871 0.6529,-7.80847 2.9621,-10.88741 1.9226,-2.56154 3.3081,-3.23173 5.7655,-6.52481 2.653,-3.55467 3.2942,-5.71687 6.6197,-8.26221 3.0373,-2.32541 6.1764,-2.83934 10.1177,-3.54425 6.7053,-1.20033 13.1352,-2.02562 19.6774,-3.10904 10.0598,-1.6668 16.0649,-3.38452 24.3074,-3.55467 m -24.3074,4.62998 v 33.56741 62.50481 33.56741 c 7.2089,-0.31484 17.932,-2.25365 24.3074,-5.78749 m -479.2036,-120.37965 -5.7874,2.315 m 415.5412,12.73246 c 0,-3.0257 -1.8126,-6.91488 1.8555,-10.98001 4.2885,-4.75153 8.1662,-2.49557 10.877,-1.75245 m -86.8122,23.14993 c 1.9596,6.56879 0.588,15.4167 11.6212,24.92785 15.3924,13.26722 42.5218,19.25611 48.8128,41.04946 5.7099,19.78161 -6.2389,44.18743 -18.7642,47.45736 1.6622,-11.30411 4.6844,-22.65221 -6.5039,-35.83725 -15.9376,-18.78154 -49.6671,-27.44425 -46.5395,-57.91998 0.4445,-4.32672 2.1981,-10.18944 4.226,-13.84018 1.7687,-3.18544 3.7873,-4.37187 6.6383,-7.42882 3.4551,-3.70514 4.7851,-6.59194 9.7704,-9.57481 6.5896,-3.94359 20.3835,-7.92769 27.7788,-7.23088 3.3428,0.31484 5.7921,1.71888 9.2599,2.7942 3.8394,1.19106 6.7355,0.33683 10.0448,3.4667 4.6913,4.43552 1.0649,9.73917 0.3727,14.45134 m 217.6094,-13.88996 c 3.9424,-3.6901 5.1369,-4.57674 9.2599,-6.94498 1.5638,5.29439 1.5638,7.43808 0,12.73247 -4.3799,-2.23281 -6.2597,-5.20758 -11.5749,-6.39864 -9.8874,-2.21545 -24.0794,4.01419 -32.4099,4.08364 m -192.1445,-5.78748 c 1.8925,5.97847 3.1218,9.55166 9.26,12.73246 m 287.0592,1.1575 c 7.6059,-0.0625 12.8783,-1.68647 20.8349,-2.31499 m -762.7899,108.80468 c 0.6285,7.96936 3.5836,28.01026 10.2751,39.35026 3.895,6.60351 11.068,12.1375 18.6403,7.24824 15.2593,-9.85377 -13.523,-31.48044 -19.4181,-39.65236 -2.7271,-3.78154 -6.0225,-6.48083 -7.6453,-10.6154 -1.3647,-3.47481 -0.7674,-6.55144 -0.6771,-10.2207 0.2604,-10.64897 4.8904,-25.91866 9.613,-35.8824 21.0965,-44.49764 78.7005,-55.55983 123.4817,-55.55983 15.1378,0 30.5059,0.7026 45.1424,4.81402 6.607,1.85663 6.7447,4.00494 11.7717,6.12548 5.0085,2.11359 10.3492,2.65645 17.1657,2.95046 m -232.6568,6.94498 c -5.5502,4.0385 -16.0753,7.13365 -27.7799,2.39486 -6.4265,-2.6009 -14.9479,-9.43476 -11.8563,-17.37403 2.7086,-6.9554 10.6999,-4.09754 15.3288,-1.10078 11.1247,7.20195 18.3903,11.90023 24.3074,16.07995 m 347.249,111.11967 c 9.5933,-26.40134 11.6537,-54.67782 3.0708,-82.18226 -6.1428,-19.68439 -22.1174,-35.92291 -28.5357,-43.98487 6.0548,-3.2815 17.2339,-4.03619 31.2524,0.60074 10.848,3.58824 20.0096,11.05525 26.7069,20.2342 27.1896,37.27371 3.8359,85.51122 -27.8644,109.96218 l -4.63,-4.62999 c -1.6344,3.96211 -0.6702,5.27471 3.4725,4.62999 m -60.1899,-120.37965 -1.1575,4.62999 -4.6299,-3.47249 6.9507,-2.90069 16.1992,-7.1406 13.89,-1.53368 m -108.8047,4.62999 c -6.8478,3.94822 -18.3591,3.10093 -34.7249,7.09545 -20.4287,4.9865 -47.3254,15.28127 -60.7478,32.26059 -4.8175,6.09306 -9.0169,19.41122 -12.0321,25.46377 -2.0766,4.17046 -3.0778,4.72143 -4.2585,9.25997 -1.5082,5.7979 -3.2167,16.67605 -2.631,23.14993 1.5673,17.34625 6.2725,35.81874 14.8496,50.92985 3.5222,6.2065 5.9449,9.93248 9.7056,16.20496 3.212,5.35573 2.4261,8.13373 5.0883,13.88996 10.9685,23.71826 22.2216,49.52696 21.0433,76.39478 -0.6262,14.28 -8.4347,31.5024 -19.6369,39.8665 -4.3418,3.2422 -10.2149,3.8499 -14.8461,5.4241 -4.5547,1.5476 -5.3036,3.2792 -10.6154,3.256 -11.465,-0.047 -36.5039,-10.4673 -34.9992,-25.3793 0.7558,-7.4879 10.1385,-8.6338 15.1215,-4.8696 5.5884,4.2214 8.5563,11.252 13.2812,16.3196 7.9601,8.5365 11.0622,7.9277 14.7002,10.5251 m -111.1197,-289.37419 15.0474,-4.62999 m 272.0118,4.62999 c -8.7287,30.53476 -10.6907,53.30156 -2.1391,84.49725 5.0467,18.40883 18.9471,33.2734 26.4465,41.66988 -9.341,4.98418 -36.6105,2.22008 -49.7677,-10.46377 -31.8868,-30.73964 -21.0109,-102.63638 21.9878,-119.17585 m -276.6417,27.77991 c -10.4059,2.4458 -25.8516,19.1369 -28.5613,35.8824 -1.4167,8.74952 3.6867,25.93603 15.779,21.29331 12.1202,-4.6543 6.4276,-22.39525 7.3432,-31.71078 0.5081,-5.16938 2.4516,-12.69542 3.8834,-17.36245 1.1876,-3.87298 1.1355,-6.61278 4.2341,-10.29709 3.3625,-3.99683 7.6383,-6.01088 12.369,-8.22285 m 857.705,0 c -4.5258,5.92869 -2.2918,6.14977 -8.3455,10.7323 -2.4655,1.86705 -5.8338,2.56386 -7.8594,3.15765 m 28.9374,-5.78748 c -4.8268,2.6171 -10.5217,3.41577 -17.3625,3.47249 m -873.9099,1.1575 4.63,4.62998 m 702.6004,1.1575 -1.1575,8.10248 m 34.7249,5.78748 c -3.4632,1.99784 -5.4761,2.97129 -11.5749,3.47249 m 127.3246,-3.47249 c 1.2154,1.63207 2.4539,4.39386 6.0305,7.36631 3.7851,3.13913 14.0058,7.10703 18.2769,8.06891 14.3993,3.24215 31.8659,-2.1923 34.7249,-13.12023 m -812.5626,6.94498 c 1.0614,1.98627 1.896,3.68547 2.4909,8.1048 0.7177,5.33258 2.8023,16.29986 4.9877,21.99012 2.9701,7.73786 9.0423,18.5593 14.8483,23.86758 3.2908,3.00833 6.1544,3.66 9.8862,6.08496 3.7897,2.46199 4.8638,4.31051 9.4614,5.86619 12.3852,4.19245 40.4545,4.26074 47.2235,-10.35844 3.7631,-8.12794 -8.0307,-14.42009 -14.8182,-13.44548 -7.151,1.02786 -13.3078,7.03411 -19.6775,10.1987 -9.988,4.96103 -15.2014,4.62883 -20.8349,7.8814 m 498.881,-49.77236 -5.7875,2.315 m -221.0818,8.10247 0.4329,10.2207 4.3881,6.08727 5.8963,7.1406 7.8026,1.999 17.3625,-1.47581 16.2049,-7.7668 m 71.7648,-11.57497 5.7875,-1.1575 m -131.9546,9.25998 c -0.8427,6.85585 3.403,11.55065 10.4175,11.57496 m -498.8811,-1.15749 v 9.25997 m 424.8013,6.94498 c -6.0641,4.61031 -13.1897,7.95316 -20.835,9.48221 -4.4598,0.89243 -8.0121,0.926 -11.5749,0.93526 m -419.0138,-2.31499 h 12.7325 m 26.6224,0 h 12.7324 m 140.0571,2.31499 c 7.8953,34.12647 19.5698,78.90423 -16.2049,102.01481 -9.6813,6.25511 -22.4462,10.73575 -33.5674,5.74234 -4.4043,-1.97701 -9.0493,-5.69373 -11.0645,-9.3873 -1.2837,-2.35203 -1.8069,-5.00154 -3.616,-8.08511 -2.4551,-4.1832 -4.13,-5.5884 -5.6405,-10.41747 -2.8382,-9.07246 -7.1904,-33.30581 4.241,-39.30512 7.4659,-3.91697 12.9605,5.21568 12.4015,11.5252 -0.7501,8.4613 -6.1151,19.87074 -8.0319,27.77992 -1.1807,4.87653 -2.0742,6.98202 -3.3371,9.25997 M 1059.3429,900.3793 v 10.41747 m 280.1142,27.77992 c 5.0652,-6.2771 17.4064,-21.89636 30.0949,-29.94096 7.0746,-4.4853 19.6335,-4.50498 19.4876,6.79103 -0.2234,17.49672 -27.8216,25.7624 -41.48,26.51362 -4.8198,0.26507 -6.9786,-1.19685 -11.575,-0.66209 -4.601,0.53476 -7.217,0.94568 -11.5749,0.81256 -10.862,-0.33336 -24.3885,-2.7097 -34.7249,-7.55266 -10.9419,-5.12655 -17.8452,-12.68501 -24.3075,-14.48144 m 247.7043,8.64418 c 18.351,-3.37179 32.0962,16.29871 39.0563,30.7107 9.3479,19.35913 12.3713,43.55897 9.0504,64.81977 -3.0245,19.3615 -16.2281,39.3758 -36.5317,43.4479 -10.6884,2.1437 -21.908,2.2421 -32.4099,-0.8623 -45.485,-13.4455 -33.6936,-75.65755 -15.5059,-106.24787 8.1801,-13.75685 19.6728,-28.8043 36.3408,-31.8682 m 79.8673,-0.54171 h 1.1575 m -243.0743,50.92986 c 5.7041,-3.28961 11.0413,-2.65877 20.8349,-7.98673 7.1753,-3.90424 13.133,-9.82715 20.835,-12.76835 6.6949,-2.55575 14.8136,-1.66448 16.029,6.86627 2.5985,18.23405 -22.8131,22.51563 -35.7065,21.94614 -4.3915,-0.19446 -11.1177,-1.41099 -15.0289,-2.82661 -4.0038,-1.45034 -5.3685,-3.41693 -6.9635,-5.23072 m -19.6775,-8.10248 18.52,8.10248 m -38.1974,-1.1575 c 4.8372,9.90354 5.6659,13.15379 9.26,20.83494 l 4.6299,-4.62999 -4.6299,-2.31499 m 4.6299,2.31499 c 10.6455,10.42447 23.8028,18.52917 38.1974,22.65567 13.5045,3.8707 34.7654,6.4473 39.5772,22.4867 5.314,17.7155 -17.2166,19.2712 -28.0022,14.1389 -21.2227,-10.0981 -46.1633,-32.1484 -54.4023,-54.65128 m -179.412,47.45738 v 1.1575"
       id="path5536"
       sodipodi:nodetypes="ccscscssscssccscccccscssccccccccccccccsccsccccscccccccccccccccccccccccccccccccccscccccscccccccccccccccscccccccccccccccscscccscccccccccsccccccccccccccscsccccsscccccssccccccccccccccccccccccscccsccccsccccscccccccccccccscsccccccccccsssccccccccssccccccccccccccsscsscccccssscccccccccccccscccccccccccccccccccccccccccccccscccccccccccccccccsccccccscccccccccccccccccccccccccccccssscscccccssssccccccscccccssccsccsccscssccccccccccccccccssccccsccccccccccccccccscsccscsccccccsccccccccccccscccccssccscscccccccccccsccsccccssccsscccccscsccccscccccccccccccccccccscscccccccccccccccccccccccccccccccccscscccccscsccscccssscccccccccccccccccccccccc" />
  </g>
  <eggbot
     layer="0"
     node="0"
     lastpath="0"
     lastpathnc="0"
     totaldeltax="0"
     totaldeltay="0" />
</svg>
