<?xml version="1.0" encoding="UTF-8" standalone="no"?>
<!-- Created with Inkscape (http://www.inkscape.org/) -->

<svg
   width="3200"
   height="800"
   id="svg2825"
   version="1.1"
   inkscape:version="1.1.2 (b8e25be833, 2022-02-05)"
   sodipodi:docname="HappyEaster.svg"
   xmlns:inkscape="http://www.inkscape.org/namespaces/inkscape"
   xmlns:sodipodi="http://sodipodi.sourceforge.net/DTD/sodipodi-0.dtd"
   xmlns="http://www.w3.org/2000/svg"
   xmlns:svg="http://www.w3.org/2000/svg"
   xmlns:rdf="http://www.w3.org/1999/02/22-rdf-syntax-ns#"
   xmlns:cc="http://creativecommons.org/ns#"
   xmlns:dc="http://purl.org/dc/elements/1.1/">
  <defs
     id="defs2827">
    <inkscape:perspective
       sodipodi:type="inkscape:persp3d"
       inkscape:vp_x="0 : 526.18109 : 1"
       inkscape:vp_y="0 : 1000 : 0"
       inkscape:vp_z="744.09448 : 526.18109 : 1"
       inkscape:persp3d-origin="372.04724 : 350.78739 : 1"
       id="perspective2833" />
    <pattern
       id="EMFhbasepattern"
       patternUnits="userSpaceOnUse"
       width="6"
       height="6"
       x="0"
       y="0" />
  </defs>
  <sodipodi:namedview
     id="base"
     pagecolor="#ffffff"
     bordercolor="#666666"
     borderopacity="1.0"
     inkscape:pageopacity="0.0"
     inkscape:pageshadow="2"
     inkscape:zoom="0.35355339"
     inkscape:cx="1351.9882"
     inkscape:cy="438.40621"
     inkscape:document-units="px"
     inkscape:current-layer="layer1"
     showgrid="false"
     inkscape:window-width="1920"
     inkscape:window-height="1017"
     inkscape:window-x="-8"
     inkscape:window-y="-8"
     inkscape:window-maximized="1"
     inkscape:pagecheckerboard="0">
    <inkscape:grid
       type="xygrid"
       id="grid3332" />
  </sodipodi:namedview>
  <metadata
     id="metadata2830">
    <rdf:RDF>
      <cc:Work
         rdf:about="">
        <dc:format>image/svg+xml</dc:format>
        <dc:type
           rdf:resource="http://purl.org/dc/dcmitype/StillImage" />
      </cc:Work>
    </rdf:RDF>
  </metadata>
  <g
     inkscape:label="Layer 1"
     inkscape:groupmode="layer"
     id="layer1"
     transform="translate(0,-252.36218)"
     style="display:inline">
    <path
       style="fill:none;stroke:#000000;stroke-width:4.9881;stroke-miterlimit:4;stroke-dasharray:none;stroke-opacity:1"
       d="m 2181.5487,1063.8633 c -28.7635,-2.6501 -46.6312,-8.8074 -57.2321,-19.7227 -6.9595,-7.1661 -10.008,-13.9498 -11.8521,-26.3748 -3.1928,-21.51174 3.7094,-40.26814 19.3459,-52.57274 l 7.7005,-6.0594 0.4706,-66.2809 c 0.5741,-80.88143 0.5151,-92.444 -0.4955,-97.2675 -0.4355,-2.07837 -0.8422,-11.84946 -0.904,-21.71336 l -0.1119,-17.9345 -4.0068,2.62525 c -6.0323,3.95255 -22.2802,2.40865 -37.6519,-3.57768 -12.1333,-4.72524 -12.2734,-4.74142 -34.0098,-3.94256 -24.5309,0.90148 -32.5743,3.12693 -34.1617,9.4517 -0.5136,2.04633 -0.3549,12.30943 0.3525,22.80682 1.3202,19.58994 1.078,107.91813 -0.3498,127.53283 -0.4389,6.0311 -0.9433,18.0057 -1.1209,26.6105 l -0.3227,15.6451 7.9738,4.5001 c 8.9662,5.0603 20.9745,18.0865 26.8366,29.1116 7.3226,13.77174 4.5365,29.72924 -7.5207,43.07504 -5.9688,6.6066 -12.5766,10.2276 -26.3615,14.4451 -4.5724,1.3991 -11.7145,3.9079 -15.8712,5.5755 -9.3703,3.759 -37.0483,6.197 -55.9273,4.9261 -24.9941,-1.6824 -51.1298,-10.8333 -64.0124,-22.4123 -4.9106,-4.4139 -10.1241,-15.1897 -12.1914,-25.1993 -1.4966,-7.24564 -1.3403,-9.67484 1.1332,-17.62214 4.7349,-15.2134 16.6002,-28.6636 31.9916,-36.2642 4.5724,-2.258 9.1085,-5.1506 10.0805,-6.428 2.0528,-2.6984 3.9923,-12.3489 7.1503,-35.5784 4.1084,-30.22062 4.389,-35.89708 4.0728,-82.37917 -0.5261,-77.28538 -0.5533,-77.90027 -3.5944,-81.2618 -3.5681,-3.94408 -14.5759,-5.10011 -33.0381,-3.46976 -14.4631,1.27726 -14.6459,1.34407 -24.1848,8.83348 -15.1074,11.86141 -31.7533,15.44453 -43.6214,9.39003 -3.2592,-1.6627 -6.4724,-3.02309 -7.1407,-3.02309 -0.6681,0 -2.8021,3.34309 -4.742,7.4291 -2.8899,6.08715 -5.753,8.94004 -15.8502,15.79445 -16.7265,11.35459 -21.8825,13.28906 -35.2337,13.21938 -11.7343,-0.0605 -21.9584,-2.77565 -30.7493,-8.16371 -7.7708,-4.76273 -9.9201,-7.1283 -13.333,-14.6753 -5.2443,-11.59629 -6.9244,-22.57057 -5.0685,-33.10665 2.4104,-13.68464 0,-17.08501 -9.3694,-13.17358 -14.9538,6.24828 -26.1561,28.86827 -20.844,42.08946 1.6726,4.16341 14.9318,14.8059 27.4533,22.03563 3.7411,2.16 7.142,4.32695 7.5577,4.81533 0.4157,0.48839 5.1771,2.84549 10.5808,5.23812 5.4038,2.39262 18.8608,8.67355 29.9045,13.95777 18.4883,8.84633 21.0445,10.59277 32.2615,22.04228 6.7004,6.83914 14.0748,15.15552 16.3876,18.48092 7.7341,11.12022 21.4587,39.55631 23.7101,49.12521 1.9789,8.4104 3.4164,27.2402 3.0579,40.056 -0.379,13.549 -0.9295,16.1334 -5.3134,24.9405 -2.6898,5.4038 -7.5872,13.5661 -10.883,18.1385 -3.2959,4.5725 -7.61,10.6942 -9.587,13.60404 -3.8219,5.6252 -16.9319,19.4253 -24.403,25.6879 -10.4591,8.767 -37.0465,25.341 -45.3772,28.287 -27.4006,9.69 -45.633,11.3426 -71.396,6.4715 -9.5484,-1.8054 -19.9247,-4.187 -23.0583,-5.2927 -14.7542,-5.2055 -36.5069,-17.4821 -44.7589,-25.2606 l -4.7526,-4.4798 -6.584,3.0879 c -3.6212,1.6984 -9.9849,5.1233 -14.1417,7.6111 -12.2366,7.3235 -16.1755,9.2339 -19.0373,9.2339 -1.486,0 -3.0582,0.5768 -3.4939,1.2818 -2.5193,4.0765 -56.2308,5.929 -73.452,2.5336 -13.9679,-2.7541 -32.8788,-15.0025 -42.5825,-27.5802 -5.4373,-7.0479 -6.4625,-9.5346 -7.0013,-16.9839 -0.4494,-6.21234 0.1224,-10.31544 1.984,-14.23864 2.8029,-5.9064 17.6476,-22.1014 20.2587,-22.1014 0.8664,0 2.7076,-1.7283 4.0916,-3.8407 2.4455,-3.7323 2.3113,-4.2543 -4.7628,-18.5165 -13.0835,-26.3777 -22.8502,-38.4022 -35.8582,-44.1475 -10.2628,-4.533 -28.5586,-5.464 -46.4724,-2.3646 -19.3961,3.356 -22.8843,4.6311 -28.2447,10.3253 -4.3855,4.6586 -21.57,29.9612 -35.942,52.9218 -4.3216,6.9038 -3.8646,17.9257 1.179,28.4412 2.2316,4.6526 4.0574,9.78814 4.0574,11.41224 0,1.624 0.6438,3.599 1.4307,4.3888 3.0235,3.0346 2.1255,13.4617 -1.8811,21.8418 -8.384,17.5356 -37.514,30.2881 -68.9805,30.1982 -25.3405,-0.073 -65.5035,-13.6148 -71.0359,-23.9522 -2.6958,-5.0372 -5.9429,-4.8062 -19.3198,1.3739 -27.755,12.8227 -52.3586,15.4686 -141.7669,15.245 -35.34932,-0.088 -42.93612,-0.5318 -56.68302,-3.3127 -8.7292,-1.7658 -22.9407,-4.4544 -31.5814,-5.9745 -8.6404,-1.5202 -16.1294,-3.4427 -16.6421,-4.2721 -0.5125,-0.8296 -2.7507,-1.9647 -4.9734,-2.5225 -9.127,-2.2907 -23.8383,-21.3071 -24.1119,-31.1678 -0.5058,-18.23094 6.8724,-31.53344 25.9306,-46.75184 10.9289,-8.7271 13.8326,-11.9012 14.9369,-16.3283 2.7884,-11.1778 4.4597,-57.2874 4.5717,-126.12764 0.13,-79.4753 0.4199,-77.24456 -10.7651,-82.64864 -3.4664,-1.6748 -6.961,-3.04502 -7.7654,-3.04502 -3.4271,0 -11.2175,-7.78673 -15.3062,-15.29911 -7.7212,-14.18632 -5.8892,-35.23476 4.2207,-48.48951 6.5233,-8.55278 21.2582,-16.31714 31.0089,-16.33982 3.8762,-0.0151 10.4487,-1.0614 14.6055,-2.33881 8.2894,-2.54726 57.376,-5.88052 65.37432,-4.43926 7.4796,1.34784 5.8175,-1.03677 -4.0941,-5.87433 -15.18502,-7.41111 -25.76422,-22.01386 -25.75332,-35.54794 0.015,-12.07348 11.5299,-25.69251 30.66992,-36.25807 13.1739,-7.27205 15.8759,-11.05424 20.932,-29.29997 2.5645,-9.25414 2.8558,-15.12998 2.5902,-52.24479 -0.6277,-87.74331 -3.2076,-122.06766 -10.0651,-133.91697 -1.6465,-2.84504 -7.34,-7.36229 -14.7176,-11.6773 -6.61772,-3.87047 -13.88372,-8.8817 -16.14682,-11.13617 -6.5009,-6.47607 -10.8101,-19.30185 -10.9073,-32.46334 -0.076,-10.12433 0.4696,-12.35825 5.0916,-20.89093 5.724,-10.56722 15.3229,-19.95528 23.04072,-22.53459 2.7655,-0.92431 13.593,-4.72872 24.0612,-8.45438 16.0797,-5.72286 22.0963,-7.06648 38.7754,-8.6592 21.3806,-2.04179 28.9233,-1.27589 47.5772,4.83061 10.2043,3.34051 25.0425,11.62606 31.8094,17.76188 5.913,5.3616 13.273,21.2995 14.1878,30.72339 1.0292,10.60198 -3.1329,33.49254 -7.1039,39.06924 -1.7168,2.41107 -6.8239,6.84126 -11.3489,9.84486 -11.5914,7.69392 -22.2235,17.57626 -25.5448,23.74352 l -2.8322,5.25912 4.1877,8.11021 c 7.8447,15.1927 18.9851,24.0227 35.0025,27.74337 9.8923,2.29801 52.3918,3.58841 60.3155,1.83139 1.6627,-0.36866 6.4081,-1.16253 10.5453,-1.76427 19.2042,-2.79274 29.5107,-14.9557 29.5107,-34.82634 0,-7.18634 -0.4686,-8.30141 -4.9125,-11.69045 -2.7019,-2.06039 -9.0819,-5.85074 -14.1777,-8.42279 -13.55,-6.83914 -19.4349,-13.02167 -22.5304,-23.66976 -2.5693,-8.83816 -3.0844,-22.30378 -1.2447,-32.53951 1.4281,-7.94651 5.9641,-15.98068 13.0667,-23.14375 8.471,-8.54326 15.0737,-12.39634 26.1237,-15.2444 5.0453,-1.30038 11.974,-3.35261 15.3974,-4.56048 6.3396,-2.23664 34.6035,-3.29548 43.4489,-1.62764 2.4941,0.4704 10.6564,1.46197 18.1386,2.20384 7.4822,0.74171 16.3247,2.11495 19.6501,3.05151 3.3254,0.9364 8.1028,2.23815 10.6164,2.89264 9.0872,2.36603 12.6248,5.14652 27.3716,21.51354 4.0504,4.49534 8.4909,18.45931 8.2668,25.99664 -0.323,10.87527 -10.5147,28.85633 -22.1426,39.06562 -2.8582,2.50962 -9.2164,9.83291 -14.1293,16.27406 -11.102,14.55574 -13.7846,23.69198 -13.7082,46.68865 0.048,14.74906 4.2463,123.22101 6.2219,119.76501 6.954,-46.25412 -4.8938,-99.28353 24.2183,-162.58833 2.4029,-3.32541 6.5994,-9.10707 9.3257,-12.84815 2.7262,-3.74108 8.1727,-12.00379 12.1037,-18.36151 14.2167,-22.9941 54.5094,-57.91294 70.0748,-60.7291 1.4875,-0.26906 5.4254,-1.67857 8.7508,-3.13208 11.1966,-4.89423 29.9761,-6.97336 49.1253,-5.43899 22.9026,1.83501 38.9874,5.93539 56.2685,14.34382 12.5489,6.10574 15.9829,8.74172 30.0943,23.10021 8.7611,8.91434 17.8686,19.26874 20.2391,23.00982 8.4532,13.34106 24.9026,45.69148 24.9026,48.97516 0,1.12051 1.0581,5.01365 2.3512,8.65149 2.6291,7.39554 6.2841,23.7674 7.4745,33.47954 0.4306,3.51374 1.7792,13.19051 2.9969,21.50402 3.706,25.30117 4.4411,35.30353 4.3883,59.70609 -0.059,26.90507 -0.609,31.63379 -7.6505,65.67019 l -0.9211,4.45271 7.2451,-5.20848 c 11.6376,-8.36626 11.7753,-9.22134 10.6939,-66.42597 -0.5108,-27.01889 -1.58,-55.58712 -2.376,-63.48495 -0.796,-7.89783 -1.4656,-24.80509 -1.4881,-37.57191 l -0.041,-23.21206 -10.3312,-10.79774 c -6.3333,-6.61906 -12.6061,-15.18454 -16.2101,-22.13418 -5.1745,-9.97817 -5.8823,-12.60433 -5.9077,-21.91742 -0.024,-8.88019 0.6908,-11.91703 4.4482,-18.89433 5.9738,-11.09324 24.7919,-29.65745 31.3631,-30.94015 16.0653,-3.13585 28.8052,-6.00991 37.4494,-8.44849 24.4892,-6.90852 32.7507,-7.82482 69.2406,-7.67971 19.3772,0.0771 35.7666,0.471 36.4209,0.87549 0.6545,0.40449 4.5263,1.05868 8.604,1.45365 24.4398,2.36739 37.6895,5.77517 54.0165,13.89232 2.3536,1.17009 5.2108,2.1275 6.349,2.1275 1.1383,0 2.6137,0.85025 3.2785,1.88944 1.3303,2.07943 5.5289,4.92265 10.4214,7.05696 1.7416,0.7597 4.1485,2.28848 5.3489,3.39735 1.2003,1.10872 3.7586,2.91698 5.6852,4.01829 3.0461,1.7413 3.9253,1.62839 6.7435,-0.86581 4.2157,-3.7311 18.2221,-12.47117 20,-12.48009 0.7586,0 6.6298,-2.04935 13.0472,-4.54567 13.8384,-5.38292 27.4574,-8.36097 45.0151,-9.84334 7.0664,-0.59676 14.5486,-1.31369 16.627,-1.59332 5.3778,-0.72343 55.7824,-0.70907 61.2176,0.0181 2.4941,0.33344 10.6564,1.03435 18.1386,1.55749 38.5978,2.69857 67.5924,9.8698 86.9139,21.49631 4.5724,2.75147 9.0818,5.00428 10.0208,5.00655 0.9391,0 4.2288,-3.07328 7.3106,-6.83401 7.7847,-9.50037 15.0368,-12.8288 30.0243,-13.77941 25.4284,-1.61312 32.2532,-1.67857 41.8255,-0.40101 5.4038,0.72131 12.5459,1.58773 15.8713,1.92556 22.3065,2.26566 45.6485,8.44712 55.3111,14.64764 13.9123,8.9275 18.7681,18.70282 18.7267,37.69903 -0.023,10.42997 -0.7797,14.64507 -4.0212,22.39477 -3.2413,7.74894 -3.5919,9.70065 -1.8615,10.36467 1.1724,0.44999 2.1318,1.64487 2.1318,2.65549 0,2.09455 22.5006,24.27785 29.7085,29.28954 2.6224,1.82337 6.0234,3.30711 7.5578,3.29713 2.886,-0.0181 19.3588,-14.95584 34.4213,-31.21268 l 8.6292,-9.31324 -6.7406,-8.82532 c -15.6389,-20.47571 -12.9561,-35.60886 10.2094,-57.59082 14.7964,-14.04031 18.1067,-15.79415 37.9746,-20.12005 13.3126,-2.89854 17.8048,-3.16442 39.2195,-2.32234 24.5028,0.96361 39.3471,3.22428 49.7701,7.5792 7.4462,3.11121 27.6558,23.47507 28.892,29.11223 0.5169,2.35711 1.6302,6.11512 2.4741,8.35115 0.8439,2.23603 1.1176,4.73975 0.6082,5.56385 -0.5092,0.82409 -0.1517,1.9768 0.7945,2.56162 3.3047,2.0424 -1.2262,24.84181 -4.9369,24.84181 -0.6979,0 -1.2689,1.26426 -1.2689,2.80921 0,4.346 -24.6843,29.48861 -34.9616,35.61082 -4.9971,2.97669 -12.9488,6.68089 -17.6708,8.23128 -17.4462,5.72876 -25.1616,9.91529 -32.3572,17.55813 -3.9296,4.17398 -7.5465,8.77936 -8.0373,10.23422 -0.491,1.45487 -1.4927,2.64521 -2.2261,2.64521 -0.7332,0 -4.5839,4.59132 -8.557,10.20294 -3.973,5.61161 -8.1438,11.15703 -9.2684,12.32318 -1.1245,1.16616 -4.6622,5.58744 -7.8612,9.82506 -3.199,4.23762 -8.5297,11.10578 -11.846,15.26253 -3.3163,4.15676 -7.9557,10.22501 -10.31,13.48496 l -4.2802,5.92738 0.127,37.1517 c 0.1436,41.96642 0.5346,43.76698 12.6726,58.42641 8.2346,9.94537 12.1841,17.69507 14.5784,28.60647 4.3102,19.64179 1.3736,29.61195 -13.0227,44.21274 -4.3034,4.36459 -6.9134,7.97733 -5.7998,8.02842 1.1136,0.0514 16.9889,0.13755 35.2786,0.19288 59.5147,0.17912 86.7132,4.82425 117.9006,20.13606 13.564,6.65942 18.8989,10.33354 28.9597,19.94486 12.1875,11.64299 15.0927,15.93986 21.7622,32.18763 9.3536,22.7858 10.1479,55.1651 1.8171,74.06578 -10.4355,23.6755 -16.5992,33.97775 -28.5659,47.74476 -28.0851,32.31044 -28.2281,32.49545 -26.4738,34.24991 0.9597,0.95968 1.7449,2.96931 1.7449,4.46571 0,1.4965 0.5513,2.7208 1.2252,2.7208 0.6736,0 4.8736,10.9161 9.3333,24.2579 4.4595,13.3418 9.42,25.7554 11.023,27.5857 8.3541,9.5381 9.8246,11.0271 12.5227,12.6818 1.6108,0.9878 7.2737,4.3887 12.5842,7.5577 11.7615,7.0181 18.664,15.1524 22.2051,26.1674 1.4699,4.5725 3.3013,8.7348 4.07,9.2497 0.7684,0.5148 1.5009,6.32974 1.6277,12.92194 0.2095,10.9038 -0.2395,12.9122 -4.9749,22.2463 -7.1291,14.0522 -12.0594,17.7316 -29.159,21.7605 -15.8115,3.7252 -38.6284,4.3646 -63.0027,1.7652 -23.8477,-2.5432 -38.4161,-8.2414 -49.2622,-19.2681 -8.674,-8.8187 -10.4769,-13.2717 -10.527,-26.0023 -0.038,-9.50924 0.6676,-12.79854 4.3736,-20.40584 2.4301,-4.9881 4.3463,-10.2158 4.258,-11.6172 -0.088,-1.4013 -2.4904,-7.8632 -5.3383,-14.3597 -2.848,-6.4964 -8.0676,-20.6543 -11.599,-31.4619 -11.3337,-34.6861 -10.5043,-33.1825 -18.5937,-33.7116 -10.8408,-0.7087 -12.4497,1.798 -13.9615,21.7524 -0.6873,9.0715 -1.2945,22.6156 -1.3494,30.0978 l -0.1,13.6039 8.67,8.3115 c 18.9715,18.1868 26.0568,33.88654 21.1484,46.85994 -0.4718,1.247 -1.0407,3.1563 -1.2641,4.2429 -0.2236,1.0865 -3.1128,6.531 -6.4205,12.0986 -5.133,8.6403 -7.3679,10.85 -15.2559,15.0845 -5.083,2.7288 -13.8191,6.3751 -19.4135,8.1031 -9.0696,2.8013 -12.3016,3.0244 -29.8337,2.0605 -22.8194,-1.2547 -38.9195,-4.0252 -48.3452,-8.3191 -8.6182,-3.9261 -9.0497,-3.8934 -22.1198,1.6683 -21.3465,9.0838 -56.3093,12.8664 -129.0711,13.9644 -27.6537,0.4174 -49.6581,-0.036 -63.4849,-1.3109 z m 126.2911,-96.39074 c 2.8674,-1.2282 8.2538,-4.5249 11.9696,-7.3259 6.8074,-5.1316 13.2353,-8.9305 25.7421,-15.214 8.4009,-4.2207 24.2999,-4.5208 35.345,-0.6669 4.0597,1.4164 7.6062,2.3504 7.881,2.0756 1.0245,-1.0245 3.295,-52.9972 4.473,-102.38615 0.4856,-20.36809 1.1161,-45.70539 1.4007,-56.30511 0.2847,-10.59972 0.066,-19.26421 -0.4843,-19.25438 -0.5509,0.0151 -4.7427,1.0221 -9.3152,2.24948 -10.7321,2.88055 -31.2894,2.93376 -38.0751,0.0983 -2.8547,-1.19276 -12.5357,-8.33482 -21.5134,-15.87124 l -16.3232,-13.70262 -22.8839,0.0151 c -12.5862,0 -27.4752,0.44424 -33.0868,0.97434 l -10.2029,0.96361 0.03,15.27478 c 0.056,28.23932 4.7769,46.64723 12.4588,48.57219 4.6109,1.15557 15.3601,-2.85652 24.5147,-9.15 4.5465,-3.12572 11.0214,-5.90304 16.1567,-6.93044 7.5372,-1.50762 9.8591,-1.3226 19.2723,1.53664 5.8864,1.78786 10.7026,3.74531 10.7026,4.34978 0,0.60446 1.9993,1.98405 4.4429,3.06572 5.9312,2.6254 15.5438,12.40873 20.7803,21.14925 4.0153,6.70235 4.2417,8.02253 4.0685,23.72433 -0.1864,16.89251 -2.8906,27.10981 -9.6416,36.42986 -4.2947,5.92886 -20.4882,15.60836 -30.3313,18.13006 -16.9418,4.3403 -38.0365,0.048 -51.9458,-10.5689 -10.7753,-8.22488 -15.784,-6.7962 -19.0796,5.4426 -3.0463,11.3131 1.3452,50.5688 6.983,62.4207 3.9105,8.2209 5.8491,9.5911 15.872,11.2187 19.8626,3.2257 32.7616,3.1271 40.79,-0.3115 z m -1204.3177,-16.2397 c 3.995,-1.5148 10.2649,-5.2137 13.9333,-8.2196 18.9723,-15.5464 39.3632,-17.4036 58.2208,-5.3026 4.9742,3.1919 8.3672,6.8516 10.569,11.4 1.7837,3.6844 3.8776,6.6989 4.6535,6.6989 1.4022,0 13.9513,-10.784 17.5894,-15.1155 1.0473,-1.247 3.0187,-4.648 4.3806,-7.5577 1.3621,-2.9097 5.3418,-11.4122 8.8441,-18.8943 3.5021,-7.4822 7.225,-16.3247 8.2728,-19.6501 1.048,-3.3254 8.8961,-19.99023 17.4401,-37.03284 8.544,-17.04268 16.7234,-34.38768 18.1763,-38.54443 1.4529,-4.15675 3.2278,-8.30943 3.944,-9.22799 3.2196,-4.12925 9.4065,-17.22241 11.8553,-25.08941 1.476,-4.74142 5.0487,-11.88347 7.9393,-15.87124 6.7617,-9.3282 15.785,-27.79144 18.3609,-37.56888 1.9289,-7.32223 1.8599,-7.83374 -1.6292,-12.09237 -2.0038,-2.44583 -5.3645,-7.32254 -7.4682,-10.83719 -7.5336,-12.58589 -3.7694,-31.32831 9.384,-46.72447 l 6.6825,-7.82195 -13.223,0.32604 c -32.7009,0.80626 -62.731,-3.12708 -76.5157,-10.02215 -18.136,-9.0714 -26.1931,-29.12902 -19.6385,-48.88795 3.2142,-9.68841 7.2858,-15.00739 24.7948,-32.38957 15.4793,-15.36729 18.1451,-20.31398 18.0148,-33.42936 -0.1149,-11.53265 -2.3702,-19.15704 -8.151,-27.55021 -6.6942,-9.71985 -10.7318,-12.82985 -22.7699,-17.53938 -13.7303,-5.37143 -42.5133,-6.16741 -61.8067,-1.7091 -27.5755,6.37222 -34.9902,15.15612 -34.39,40.74101 0.1829,7.79505 1.2492,16.36642 2.3694,19.0476 1.9251,4.60735 9.4338,11.37016 12.6246,11.37016 2.7706,0 15.6981,7.95587 16.5547,10.18812 0.4715,1.22874 2.5232,4.03039 4.5593,6.22591 6.257,6.74664 7.6238,11.93049 7.0973,26.91777 -0.2677,7.62137 -1.1078,15.10353 -1.8667,16.62702 -0.7591,1.52379 -2.6664,5.49114 -4.2386,8.81654 -1.572,3.32541 -6.3488,9.50476 -10.6148,13.7318 l -7.7564,7.68576 12.5468,1.67872 c 20.9627,2.80483 38.2161,14.30558 45.6523,30.43091 5.0849,11.02658 5.7121,33.39777 1.1332,40.41241 -6.5028,9.96169 -18.2753,22.79366 -25.285,27.56032 -8.6578,5.88748 -25.3903,12.1935 -32.478,12.24006 -8.4084,0.0544 -21.4624,-5.92224 -30.1856,-13.82189 -4.5293,-4.10188 -10.0613,-8.16976 -12.2932,-9.0398 -2.2761,-0.88743 -13.9696,-1.49235 -26.6304,-1.37778 -19.1083,0.17292 -24.093,0.72585 -32.4788,3.60262 l -9.9061,3.39856 -4.4714,10.52445 c -4.0027,9.42132 -4.4802,12.24065 -4.5543,26.89464 -0.098,19.50787 0.7212,20.66284 14.6653,20.66284 10.0217,0 13.2466,-1.3291 20.7256,-8.54114 6.5083,-6.27609 25.9289,-14.59141 34.0576,-14.58249 3.3254,0 9.4471,1.16993 13.6039,2.59139 7.5355,2.57719 17.3828,10.43164 17.3828,13.86511 0,0.9949 0.8733,2.14413 1.9408,2.55376 3.3662,1.29177 8.5697,13.55737 10.0812,23.76348 0.8004,5.40378 2.2367,14.54183 3.1917,20.30672 0.9551,5.76504 1.3304,12.90709 0.834,15.87124 -2.898,17.30562 -4.1321,21.77949 -7.6744,27.82402 -4.5759,7.80831 -18.4582,22.15611 -21.4375,22.15611 -1.1282,0 -2.0513,0.6239 -2.0513,1.3865 0,2.209 -13.1556,6.6298 -20.1051,6.756 -7.402,0.1346 -20.0361,-5.7948 -30.9521,-14.5259 -10.5696,-8.4543 -16.3017,-10.6728 -25.5858,-9.9029 -12.1171,1.0049 -14.051,3.5399 -14.0441,18.41 0,15.3782 3.478,37.1904 6.7001,42.1081 4.1547,6.3406 20.801,8.7258 53.0003,7.594 15.3429,-0.5395 23.1588,-1.5013 28.4254,-3.4984 z m 465.1278,-8.6493 c 0.067,-17.3848 9.0408,-30.7225 36.9996,-54.988 3.2637,-2.8326 21.6691,-8.21144 32.1817,-9.40481 19.3103,-2.1922 47.0756,8.48791 51.4198,19.77901 1.7895,4.6512 4.7922,18.074 5.7948,25.9048 0.9836,7.6816 -2.1068,15.5004 -8.2817,20.9538 l -5.5373,4.89 6.5825,0.023 c 7.7275,0.026 19.6356,-5.4588 25.2835,-11.6464 7.2636,-7.9576 11.1823,-18.3586 11.1983,-29.7233 0.017,-11.8635 -2.0935,-20.4148 -6.9974,-28.35391 -3.8668,-6.25976 -18.4114,-19.52509 -27.1664,-24.77674 -13.0645,-7.83661 -40.7692,-20.73191 -53.4306,-24.86947 -7.3981,-2.41757 -14.6895,-5.05325 -16.2031,-5.85709 -1.5135,-0.80384 -6.4928,-2.95689 -11.0652,-4.7848 -16.2365,-6.49058 -30.7074,-20.83712 -38.5733,-38.24183 -4.8119,-10.64703 -7.5803,-34.43832 -5.2908,-45.46701 1.7147,-8.25985 7.0801,-21.8089 13.5237,-34.15052 3.6741,-7.03731 22.0119,-25.65715 32.6077,-33.10922 3.3254,-2.33882 10.9777,-6.7944 17.0052,-9.90123 6.0276,-3.10684 11.3265,-6.2433 11.7754,-6.96975 0.4491,-0.72644 -1.4322,-2.26051 -4.1806,-3.40884 -6.047,-2.52655 -14.775,-12.09327 -14.775,-16.1947 0,-4.6202 -2.5977,-3.59371 -11.85,4.68246 -24.6225,22.0246 -56.4973,33.38432 -100.1525,35.69306 l -17.5309,0.92718 2.158,7.36138 c 3.7731,12.87158 -1.3973,29.01988 -12.3899,38.6959 -3.7701,3.3186 -6.8547,6.78699 -6.8547,7.70767 0,0.92069 2.3212,6.6165 5.158,12.65754 5.8722,12.50442 6.9794,15.37636 16.7643,43.48206 3.9073,11.22323 8.7357,23.87457 10.7296,28.11416 1.9938,4.23973 3.6252,8.47327 3.6252,9.40786 0,1.73647 7.6161,21.56342 11.4246,29.7418 2.2045,4.73371 6.9607,19.16421 9.8367,29.84495 0.9228,3.42699 3.6025,10.35739 5.9549,15.40089 2.3526,5.0432 5.0989,12.2306 6.1032,15.9717 1.9183,7.1455 2.9906,9.9188 9.8226,25.4043 4.0387,9.1542 8.2583,13.8959 12.3658,13.8959 1.3392,0 1.9411,-2.6636 1.9643,-8.6914 z m -162.543,-131.6951 c 6.7944,-1.45395 6.3526,-5.2038 -1.9408,-16.47102 -4.1167,-5.59257 -8.546,-12.25849 -9.8429,-14.81315 -5.0934,-10.03214 -6.0761,-9.52788 -14.457,7.42048 -4.2629,8.62065 -7.7506,16.57063 -7.7506,17.66665 0,1.09603 1.1256,3.23668 2.5016,4.75699 2.0611,2.2776 4.6555,2.73273 14.7376,2.5855 6.7297,-0.0983 14.2682,-0.61384 16.7521,-1.14545 z m 1119.4686,-10.657 c 8.0051,-4.03372 16.2911,-14.42167 17.514,-21.95673 0.7529,-4.63939 0.036,-6.7291 -4.6376,-13.51458 -7.3714,-10.70296 -18.0273,-16.71378 -27.6974,-15.6238 -10.4262,1.17522 -11.4241,2.96535 -11.2825,20.24081 0.067,8.17959 0.5677,19.0857 1.1125,24.23584 0.844,7.97779 1.4694,9.452 4.2245,9.95882 6.4721,1.19065 14.2602,-0.062 20.7665,-3.34036 z M 1797.4487,667.82059 c 8.2296,-9.53227 18.8652,-15.52736 34.9328,-19.69092 8.3726,-2.16967 16.7323,-2.7628 40.056,-2.84231 16.2113,-0.0559 32.366,0.3017 35.8992,0.79341 6.8713,0.95636 8.149,-0.26059 3.626,-3.45343 -5.7461,-4.05639 -8.3325,-11.88302 -8.4382,-25.5344 -0.098,-12.60131 0.068,-13.23299 5.7122,-21.73362 3.1969,-4.81534 11.4534,-14.37058 18.3477,-21.23391 14.5136,-14.44827 13.2258,-9.76262 15.9884,-58.17579 1.4136,-24.77077 2.1819,-117.6414 0.9833,-118.84006 -0.2546,-0.25454 -3.1515,4.74157 -6.4377,11.10231 -14.3721,27.8185 -29.102,41.48001 -66.3515,61.53869 -10.9192,5.88006 -33.2712,13.71456 -51.4778,18.04348 -13.9044,3.30605 -23.3203,9.81674 -29.3303,20.28057 -4.0649,7.07706 -4.8267,10.14988 -5.5766,22.49438 -1.1841,19.49275 0.9379,28.03042 9.1399,36.77321 18.4717,19.68955 23.882,30.11726 24.0154,46.28748 0.076,9.19111 -0.628,12.22221 -4.8115,20.72028 -5.9602,12.10688 -13.5819,18.98911 -29.2952,26.45327 -6.4203,3.04985 -11.6918,5.99449 -11.7144,6.54364 -0.039,0.9689 14.7332,8.82667 16.5945,8.82667 0.5095,0 4.1715,-3.75876 8.1378,-8.35295 z m 357.648,-9.82611 c 2.6435,-1.31308 22.6831,-2.99014 62.7291,-5.24976 8.3135,-0.46918 23.6179,-1.34119 34.0098,-1.9381 10.3919,-0.59691 31.9881,-0.98583 47.9916,-0.8643 16.0035,0.12092 29.0973,-0.0348 29.0973,-0.3472 0,-0.31244 -2.6272,-1.90833 -5.8385,-3.54655 -7.6605,-3.9081 -19.2034,-16.8622 -20.4127,-22.90809 -1.7614,-8.80702 -0.9553,-15.68169 2.7788,-23.70256 6.8703,-14.75692 16.6466,-26.28791 26.5904,-31.36308 3.7934,-1.93599 7.6271,-4.42323 8.5195,-5.52727 2.2591,-2.79485 3.734,-44.19051 2.2288,-62.55263 -1.4648,-17.86784 -5.1859,-26.56664 -18.4009,-43.01483 -4.5725,-5.69113 -11.3155,-14.52279 -14.9845,-19.62592 -3.6689,-5.10298 -17.4839,-19.59781 -30.6998,-32.21061 -13.216,-12.61279 -26.8583,-26.68091 -30.3166,-31.26256 -7.4339,-9.84923 -12.874,-15.13224 -15.5821,-15.13224 -1.078,0 -4.3797,-1.4275 -7.3369,-3.17243 l -5.3768,-3.17229 v 6.63358 c 0,14.86651 -8.6134,37.38734 -22.2759,58.24291 -5.7502,8.77755 -28.3854,29.59608 -41.2091,37.90142 -14.8416,9.61238 -38.2943,20.85723 -49.1253,23.55398 -5.8194,1.44896 -13.9818,3.58931 -18.1385,4.75653 -4.1568,1.16707 -9.5983,2.57326 -12.0924,3.12467 -15.896,3.51495 -21.3173,12.07695 -23.5168,37.14157 -0.8017,9.13533 -1.1516,17.10466 -0.7777,17.70973 0.374,0.60507 0.1134,3.6132 -0.5796,6.68497 -0.6928,3.07161 -0.7247,5.58486 -0.071,5.58486 0.6538,0 1.6553,1.85935 2.2256,4.13196 0.5705,2.27261 4.5812,8.56442 8.9127,13.98181 4.3316,5.41738 10.4876,15.18696 13.6798,21.71019 5.0895,10.40019 5.6961,12.77287 4.9264,19.2707 -1.1601,9.79619 -5.9104,20.23583 -11.6451,25.59291 l -4.643,4.33723 4.2329,2.1207 c 2.3281,1.16646 8.6541,2.24525 14.0579,2.39716 8.5203,0.23973 27.6227,2.2448 37.0329,3.88724 11.4204,1.99328 18.8254,4.81942 20.8322,7.95043 1.1839,1.84696 8.4429,1.22768 13.1776,-1.12413 z m -690.978,-30.93335 c -1.8356,-8.70365 -41.1081,-24.40355 -46.6567,-18.81225 -2.034,2.46915 -0.658,0.94884 -2.034,2.46915 -2.3711,2.62027 -1.3944,5.70358 1.6147,6.5052 22.5516,1.30094 64.6166,39.72766 47.076,9.8379 z m -76.8877,7.66808 c 0,-0.34781 -2.5507,-2.18253 -5.6683,-4.07695 -3.1175,-1.89442 -6.0084,-3.82043 -6.424,-4.27994 -1.2341,-1.36432 -10.399,-7.63754 -11.1583,-7.63754 -0.3848,0 -1.4674,2.32627 -2.4057,5.16949 -0.9384,2.84322 -2.7239,6.01414 -3.9677,7.04637 -1.8146,1.50611 -1.874,2.12267 -0.3005,3.12089 1.9574,1.24174 29.9245,1.85633 29.9245,0.65768 z m 230.5703,-46.49578 c 44.0938,-49.2876 -5.1651,-63.7908 -41.0053,-25.97426 -54.9524,71.09903 1.8116,62.40445 41.0053,25.97426 z M 1515.3594,470.60277 c -2.4959,-5.8453 -15.8183,-20.38835 -23.4012,-25.54529 -27.6809,-12.91651 -38.2886,-7.81952 -54.1386,3.61935 -20.0435,7.17321 -24.1908,43.52693 -21.281,60.10806 2.2377,11.92867 21.5312,24.32924 38.2769,24.60178 36.6989,2.83268 77.0064,-21.56596 60.5439,-62.7839 z m 115.9398,-15.94924 13.9351,-18.05935 c -1.305,-44.68307 -3.9496,-76.52738 -34.2944,-94.56854 -44.0699,3.25361 -60.9077,59.9162 -35.0394,87.50191 11.4885,13.40662 26.0636,29.76072 42.5506,27.97223 4.5467,-0.51257 10.3284,-1.79345 12.8481,-2.84625 z m 449.056,-60.51068 c 7.9678,-4.66947 11.0444,-8.7313 12.2526,-16.17672 1.4384,-8.86386 -1.754,-15.56016 -9.1176,-19.12484 -7.1622,-3.46719 -13.3015,-3.92156 -20.2511,-1.49885 -5.9254,2.06568 -6.4165,3.52009 -7.4758,22.14158 -1.0847,19.06575 -0.1451,20.82171 10.4636,19.56516 3.9679,-0.46994 10.3256,-2.67786 14.1283,-4.90633 z m -262.534,-8.83877 c 5.6016,-2.89672 12.3595,-9.85573 14.5359,-14.96884 4.1163,-9.67027 -1.778,-17.21531 -14.8323,-18.98684 -4.6122,-0.62593 -9.278,-0.64649 -10.3685,-0.0453 -1.0905,0.60069 -5.0435,1.33137 -8.7846,1.62371 -11.054,0.86385 -17.7088,10.87452 -14.813,22.28276 1.255,4.94488 2.9076,7.06633 7.8242,10.04453 5.264,3.18861 7.4896,3.64857 14.3145,2.95825 4.4448,-0.44954 9.9006,-1.75808 12.1238,-2.90776 z m -316.3227,-55.80493 c 2.0054,-4.03236 4.0544,-9.88612 4.5537,-13.00822 0.7735,-4.8368 0.4563,-5.79467 -2.1434,-6.47456 -2.1299,-0.557 -2.5042,-2.19928 -9.405,-2.23335 -6.9009,-0.034 -12.1097,1.7522 -20.3865,4.05085 -8.2768,2.29865 -38.6578,21.32809 -49.8256,34.58861 -11.1679,13.26053 -5.1237,21.47116 18.1108,24.34597 33.29,2.73626 46.1437,-15.19242 59.096,-41.2693 z"
       id="path1115"
       sodipodi:nodetypes="cssscssscssssssscsssssssssssssssssssscssscssssssssssssssscscsssssssssssssssssssssscssscssscsssscssscsssssscsssssssssscssscsssssssssssssssscccsssssssssssscscsssscsssssssssssssssscsssssscsssssssssscscssssssssssssssssssssscssssscssssssssssssssssssssssssssscsssssssssscccsssssscsssccscsssssssssssssssccsssssssssssssssssscssssssssssssssssscsssscsssscsssscsssssssssssscsssssssssccssssssssssssssssscssssssssssssssssscssssssscssssssscsscssssssssssssscssssssssssssssssssscssssssssssssssscsssssccsccsssssssscccccccccccccccssssssssssssssssscsszzzcc" />
  </g>
  <eggbot
     layer="0"
     node="0"
     lastpath="0"
     lastpathnc="0"
     totaldeltax="0"
     totaldeltay="0" />
</svg>
