<?xml version="1.0" encoding="UTF-8" standalone="no"?>
<!-- Created with Inkscape (http://www.inkscape.org/) -->

<svg
   width="3200"
   height="800"
   id="svg2825"
   version="1.1"
   inkscape:version="1.1.2 (b8e25be833, 2022-02-05)"
   sodipodi:docname="HASE5.svg"
   xmlns:inkscape="http://www.inkscape.org/namespaces/inkscape"
   xmlns:sodipodi="http://sodipodi.sourceforge.net/DTD/sodipodi-0.dtd"
   xmlns="http://www.w3.org/2000/svg"
   xmlns:svg="http://www.w3.org/2000/svg"
   xmlns:rdf="http://www.w3.org/1999/02/22-rdf-syntax-ns#"
   xmlns:cc="http://creativecommons.org/ns#"
   xmlns:dc="http://purl.org/dc/elements/1.1/">
  <defs
     id="defs2827">
    <inkscape:perspective
       sodipodi:type="inkscape:persp3d"
       inkscape:vp_x="0 : 526.18109 : 1"
       inkscape:vp_y="0 : 1000 : 0"
       inkscape:vp_z="744.09448 : 526.18109 : 1"
       inkscape:persp3d-origin="372.04724 : 350.78739 : 1"
       id="perspective2833" />
    <pattern
       id="EMFhbasepattern"
       patternUnits="userSpaceOnUse"
       width="6"
       height="6"
       x="0"
       y="0" />
  </defs>
  <sodipodi:namedview
     id="base"
     pagecolor="#ffffff"
     bordercolor="#666666"
     borderopacity="1.0"
     inkscape:pageopacity="0.0"
     inkscape:pageshadow="2"
     inkscape:zoom="0.70710678"
     inkscape:cx="1658.8504"
     inkscape:cy="369.99394"
     inkscape:document-units="px"
     inkscape:current-layer="layer1"
     showgrid="false"
     inkscape:window-width="1920"
     inkscape:window-height="1017"
     inkscape:window-x="-8"
     inkscape:window-y="-8"
     inkscape:window-maximized="1"
     inkscape:pagecheckerboard="0">
    <inkscape:grid
       type="xygrid"
       id="grid3332" />
  </sodipodi:namedview>
  <metadata
     id="metadata2830">
    <rdf:RDF>
      <cc:Work
         rdf:about="">
        <dc:format>image/svg+xml</dc:format>
        <dc:type
           rdf:resource="http://purl.org/dc/dcmitype/StillImage" />
      </cc:Work>
    </rdf:RDF>
  </metadata>
  <g
     inkscape:label="Layer 1"
     inkscape:groupmode="layer"
     id="layer1"
     transform="translate(0,-252.36218)"
     style="display:inline">
    <path
       style="fill:none;stroke:#000000;stroke-width:3.86031;stroke-miterlimit:4;stroke-dasharray:none;stroke-opacity:1"
       d="m 821.63831,996.00985 c -42.62239,-1.72794 -85.68943,-10.20667 -132.95393,-26.17509 -20.13423,-6.80242 -40.33624,-14.80758 -64.84675,-25.696 -44.65995,-19.83946 -83.89018,-33.02258 -125.70849,-42.24367 -12.01081,-2.6484 -35.59138,-6.77559 -36.05627,-6.31068 -0.0838,0.0837 4.97863,15.03379 11.24989,33.22222 10.66958,30.94476 11.4023,33.23065 11.4023,35.57235 0,1.37638 -0.0825,2.5025 -0.18352,2.5025 -0.10094,0 -1.77191,-0.23501 -3.71329,-0.52225 -6.96476,-1.03052 -14.21742,-1.44256 -25.26611,-1.43547 -11.5528,0.008 -17.6966,0.36144 -28.0761,1.61773 -17.85886,2.16161 -30.9267,5.22459 -53.25403,12.48234 -22.22906,7.22578 -32.67783,10.13277 -42.56701,11.84262 -3.90594,0.67535 -6.06946,0.81507 -12.67953,0.81877 -7.06328,0.004 -8.33272,-0.0875 -11.15847,-0.80453 -6.27419,-1.59197 -12.11965,-5.10381 -15.49862,-9.31124 -3.87609,-4.82641 -6.7867,-11.69712 -8.14057,-19.21637 C 281.25112,946.04311 270.14563,897.55854 261.20257,862.00366 240.702,780.49962 221.20622,720.7928 202.49734,682.21598 l -3.56267,-7.34605 0.40779,-1.94417 c 0.34952,-1.66634 0.32118,-2.07637 -0.19834,-2.86925 -0.36977,-0.56435 -0.46643,-1.01141 -0.24789,-1.14649 0.19704,-0.12177 0.35824,-0.53303 0.35824,-0.91392 0,-1.5352 3.04522,-9.8731 5.22238,-14.29902 9.50144,-19.3154 28.97966,-37.11028 57.99415,-52.98219 35.41369,-19.3725 85.94956,-35.24444 140.38052,-44.08968 21.49927,-3.49372 31.17617,-4.46736 47.63881,-4.79321 74.68498,-1.47824 150.58069,28.08633 213.49207,83.16412 6.77131,5.92816 19.81456,18.62145 25.91725,25.22186 2.2107,2.39099 4.11846,4.39249 4.2395,4.44777 0.2771,0.12655 -7.85849,-23.79909 -10.81293,-31.79933 -7.45361,-20.18342 -15.88893,-39.36758 -22.48859,-51.14486 -1.22148,-2.17979 -2.09778,-4.15644 -2.0075,-4.5284 0.0892,-0.3678 -0.552,-1.84943 -1.44814,-3.34604 l -1.60831,-2.68597 1.24879,-3.44983 c 4.72591,-13.05557 12.32494,-25.31431 23.79527,-38.38647 4.36571,-4.97538 14.31871,-14.63451 20.90844,-20.29111 28.49699,-24.46168 71.47683,-49.27222 124.98395,-72.14824 50.06104,-21.4027 108.95224,-40.93103 170.44914,-56.52091 48.89203,-12.39447 90.48183,-20.30882 148.35053,-28.23046 347.145,-35.35681 673.9677,-50.04648 1027.1993,7.9668 80.5876,13.45482 171.8422,38.79534 245.005,68.03551 24.8897,9.94734 41.8579,17.52537 63.4937,28.35637 42.75,21.40084 73.3085,42.0611 96.2237,65.05578 16.0193,16.07483 26.7833,32.2492 31.8208,47.81527 l 0.6109,1.88759 -1.5438,2.64081 c -0.8524,1.45803 -1.5119,3.03364 -1.4724,3.51788 0.039,0.48239 -0.161,1.23183 -0.4451,1.66541 -1.2653,1.9311 -6.2088,11.49316 -8.908,17.2305 -5.4067,11.4925 -10.7359,24.57743 -16.6608,40.90764 -3.4083,9.39399 -9.4751,27.23561 -9.3153,27.39534 0.063,0.0631 2.3069,-2.26283 4.9864,-5.16858 8.9245,-9.67797 20.9301,-20.99454 32.6221,-30.75022 52.183,-43.54049 114.5662,-70.37135 176.3903,-75.86494 2.2913,-0.2036 4.9812,-0.45142 5.9774,-0.55069 0.9963,-0.0992 7.0281,-0.28715 13.4041,-0.4175 16.8536,-0.34457 28.0341,0.37051 46.1897,2.9542 45.6584,6.49756 91.3123,18.58551 125.9661,33.35248 50.4679,21.50585 80.873,48.12853 88.951,77.88553 0.7852,2.8923 0.8345,3.4101 0.4034,4.23292 -0.3953,0.75431 -0.4086,1.29542 -0.068,2.76937 l 0.4229,1.83188 -3.4754,7.15814 c -19.5534,40.27446 -40.0129,103.74918 -61.5092,190.8302 -8.2356,33.3618 -17.2931,73.32873 -20.0723,88.57033 -3.1613,17.33751 -10.5117,26.20264 -24.5547,29.61481 -3.756,0.91264 -16.6223,0.90514 -22.0162,-0.0127 -10.149,-1.72723 -20.5931,-4.54553 -38.582,-10.41109 -20.0072,-6.52361 -27.1518,-8.53024 -39.1254,-10.98869 -18.3815,-3.77409 -39.1189,-5.48436 -56.2398,-4.63824 -7.7607,0.38353 -16.3816,1.16412 -19.0223,1.72235 l -0.9962,0.21062 v -2.81232 c 0,-2.74769 0.2592,-3.56404 11.2852,-35.53703 6.2069,-17.99859 11.1876,-32.82242 11.0681,-32.94181 -0.3015,-0.30156 -15.3988,2.12179 -25.4327,4.08233 -43.4104,8.48214 -89.2218,23.39471 -135.852,44.22258 -10.8187,4.83228 -19.5987,8.59031 -28.6196,12.24977 -54.847,22.24975 -108.0457,35.62104 -154.8714,38.92637 -3.0883,0.21799 -6.5035,0.46722 -7.5892,0.55384 -1.0856,0.0866 -6.8729,0.26312 -12.8606,0.39224 -52.3209,1.12825 -102.1103,-9.77813 -148.1879,-32.46061 -30.0991,-14.81676 -55.1719,-33.79059 -73.1448,-55.35217 -18.9842,-22.77494 -28.955,-47.22662 -27.3573,-67.08925 0.67,-8.3306 2.5397,-13.24347 8.5848,-22.55771 2.5978,-4.00275 6.5392,-11.32503 14.3507,-26.6602 5.923,-11.62803 10.7111,-21.19982 10.6403,-21.27071 -0.3946,-0.39456 -34.207,-6.62719 -53.7104,-9.90044 -367.6892,-50.10401 -479.506,-48.34595 -805.6936,-29.56326 -5.1805,0.29807 -10.3158,0.62046 -11.4116,0.71639 -1.0959,0.0959 -3.4598,0.26392 -5.253,0.37325 -67.3714,4.10719 -155.5039,13.5855 -222.6163,23.94153 -28.8549,4.45254 -81.0234,13.66944 -81.8072,14.45329 -0.1291,0.12904 0.8228,2.30245 2.1153,4.82981 1.2925,2.52736 6.1719,12.09421 10.8431,21.2597 5.3371,10.47173 9.6298,18.40136 11.5515,21.33827 5.7701,8.81829 7.53,12.95779 8.6081,20.24686 1.9515,13.19566 -2.1554,30.39366 -11.1783,46.80931 -14.165,25.77082 -39.5775,50.26576 -71.81851,69.22553 -7.32867,4.3097 -24.23567,12.7847 -32.24224,16.16209 -28.89067,12.18695 -56.18231,19.52104 -86.58308,23.26751 -3.94599,0.48628 -13.44375,1.35128 -19.92498,1.81463 -3.33943,0.23873 -28.47928,0.51091 -32.42338,0.35101 z M 796.04255,731.97861 c 4.21482,-1.07898 13.85814,-3.46437 21.42963,-5.30083 7.5715,-1.83651 13.81196,-3.37671 13.86775,-3.42275 0.0558,-0.0461 -4.47413,-18.71173 -10.06642,-41.4793 -5.59229,-22.7676 -10.08356,-41.47987 -9.9806,-41.58283 0.33191,-0.33192 41.18301,-9.93871 41.38852,-9.73317 0.0495,0.0495 4.42845,18.74726 9.73111,41.55067 5.30261,22.80339 9.70788,41.52747 9.78943,41.60902 0.0815,0.0815 5.08112,-0.94967 11.11013,-2.29159 6.029,-1.34193 15.84905,-3.49717 21.82231,-4.78935 5.97329,-1.29219 10.91211,-2.40107 10.97518,-2.4641 0.0631,-0.0631 -6.74732,-31.47552 -15.13411,-69.80547 -8.38682,-38.32996 -18.11292,-82.81414 -21.6136,-98.85374 -3.50064,-16.03961 -6.42595,-29.22937 -6.50069,-29.31057 -0.26029,-0.28284 -45.94996,9.78827 -46.38636,10.22469 -0.12342,0.12342 3.6533,16.8987 8.39273,37.27841 4.73943,20.3797 8.63313,37.27429 8.65269,37.54354 0.0254,0.35082 -3.24947,1.2514 -11.55717,3.17817 -6.376,1.47875 -15.74979,3.67787 -20.83066,4.88694 -5.08087,1.20907 -9.38467,2.22423 -9.56395,2.25591 -0.31239,0.0552 -1.51962,-4.72284 -13.48679,-53.37756 -2.91596,-11.85536 -5.32819,-21.58949 -5.36051,-21.63139 -0.12041,-0.15616 -45.68496,11.21962 -45.96344,11.47537 -0.25148,0.23098 7.91195,31.90899 43.19666,167.62322 3.99743,15.37519 7.26806,28.0502 7.26806,28.16667 0,0.43133 1.33062,0.16734 8.8201,-1.74996 z m 1694.94665,1.75051 c 0,-0.51834 -3.8247,-29.22658 -5.6428,-42.35573 -1.6514,-11.92583 -5.192,-36.21932 -7.5499,-51.80493 -0.2713,-1.79325 -0.4706,-3.27759 -0.4429,-3.29853 0.028,-0.021 2.1291,-0.62749 4.6697,-1.34787 12.8528,-3.64421 22.8643,-8.97203 29.6484,-15.77786 5.5735,-5.59146 9.517,-12.2224 12.2888,-20.6633 2.6231,-7.98793 3.0446,-10.73636 3.0606,-19.95533 0.012,-7.04986 -0.096,-8.6921 -0.7983,-12.15518 -1.9396,-9.56043 -5.3186,-16.15001 -11.6586,-22.73673 -7.9166,-8.22459 -22.5048,-16.69341 -36.2562,-21.04788 -2.141,-0.67794 -10.7193,-2.81654 -19.0629,-4.75245 -15.6845,-3.63913 -48.796,-10.99519 -48.9474,-10.87414 -0.079,0.0627 -13.9384,62.9646 -35.2337,159.9059 -4.6111,20.99064 -8.3318,38.20162 -8.2684,38.24665 0.063,0.045 1.5009,0.36571 3.1946,0.71266 1.6937,0.34695 11.5356,2.50215 21.8712,4.78931 10.3355,2.28717 18.829,4.11049 18.8745,4.0518 0.091,-0.11723 9.5379,-40.41101 17.607,-75.09705 2.8274,-12.15424 5.2008,-22.16655 5.274,-22.24957 0.073,-0.083 0.2351,-0.0491 0.3596,0.0755 0.4427,0.44262 6.3952,49.21902 9.9125,81.22451 1.0073,9.16548 2.0318,18.44628 2.2766,20.62397 l 0.4452,3.95946 11.2305,2.69037 c 6.1767,1.47967 15.9581,3.87973 21.7362,5.33342 10.8908,2.7399 11.4117,2.85416 11.4117,2.50305 z m -44.0745,-125.87917 c -2.9787,-0.3376 -10.2528,-1.65728 -10.5005,-1.90501 -0.073,-0.0734 2.7291,-12.34532 6.2276,-27.27103 3.4986,-14.92569 6.4573,-27.67789 6.5748,-28.33821 0.2104,-1.18302 0.2353,-1.19691 1.7021,-0.9498 3.9192,0.66031 12.6156,3.07889 14.7901,4.11331 9.0518,4.30601 13.0492,11.51361 12.4734,22.49045 -0.4586,8.74495 -3.5131,17.8328 -7.9996,23.80119 -3.2955,4.38405 -6.7291,6.77028 -11.0734,7.69562 -2.7616,0.58821 -8.6604,0.76404 -12.1945,0.36348 z M 962.38111,694.67449 c 10.56023,-2.09542 19.93404,-3.94463 20.83066,-4.1094 l 1.63023,-0.29956 0.22768,-3.97445 c 0.1252,-2.18598 0.348,-7.23494 0.49512,-11.21994 0.14708,-3.98499 0.37068,-9.51861 0.49686,-12.29691 l 0.22943,-5.05147 2.5359,-0.47971 c 6.75479,-1.27777 44.30761,-8.09198 47.71821,-8.6588 2.1359,-0.35495 3.9409,-0.57245 4.0111,-0.48331 0.07,0.0891 2.8036,6.65399 6.074,14.5886 3.2704,7.93459 6.0439,14.58447 6.1632,14.77752 0.1323,0.2141 7.9049,-0.92155 19.9301,-2.912 10.8423,-1.79465 20.5691,-3.37108 21.6152,-3.5032 1.0461,-0.1321 1.902,-0.32556 1.902,-0.42989 0,-0.63119 -28.8233,-65.66831 -40.6549,-91.73412 -14.5883,-32.1391 -45.4559,-98.21063 -46.2565,-99.01119 -0.3225,-0.32254 -16.30335,2.39723 -37.52355,6.38611 l -10.13801,1.90568 -1.52923,13.75145 c -6.41222,57.66102 -10.52862,99.39784 -14.4155,146.16196 -2.29155,27.56997 -2.6355,31.80127 -3.25393,40.03108 -0.29946,3.985 -0.63691,8.03955 -0.74991,9.01012 -0.19783,1.69956 -0.17465,1.75719 0.628,1.56295 0.45838,-0.11093 9.4736,-1.91614 20.03384,-4.01152 z m 25.90247,-71.11883 c 0,-0.33956 0.90304,-18.22996 1.26723,-25.10511 0.87692,-16.55524 1.69507,-31.57179 1.99351,-36.58951 0.19555,-3.28762 0.43781,-7.36318 0.53838,-9.0568 0.10057,-1.69362 0.34911,-6.01372 0.55235,-9.60021 0.47179,-8.32651 0.70585,-10.48434 1.09494,-10.09429 0.49019,0.49137 14.42611,34.02462 28.11901,67.66096 6.4722,15.89874 6.5418,16.13384 4.7817,16.15019 -0.6014,0.006 -36.01394,6.38866 -37.53201,6.76513 -0.4483,0.11117 -0.81511,0.0525 -0.81511,-0.13036 z m 1350.13002,54.99047 c 2.2277,-10.64148 3.9927,-19.40582 3.9222,-19.47629 -0.2849,-0.28487 -56.7933,-11.35026 -57.9632,-11.35026 -0.4535,0 -0.5676,-0.21599 -0.4308,-0.81511 0.1023,-0.44831 1.3371,-6.84694 2.744,-14.21919 1.4067,-7.37223 3.2227,-16.8683 4.0354,-21.10236 0.8129,-4.23405 1.6463,-7.69828 1.8522,-7.69828 0.5226,0 27.0144,5.07865 36.6611,7.02818 4.3836,0.88588 8.0775,1.50094 8.2088,1.36681 0.254,-0.25948 7.5592,-35.3639 7.5534,-36.29763 0,-0.59673 -4.2644,-1.50701 -31.4813,-6.72575 -7.6494,-1.46672 -13.9574,-2.71629 -14.018,-2.77683 -0.061,-0.0606 0.2813,-2.14333 0.7597,-4.62842 0.4784,-2.4851 2.1962,-11.44682 3.8174,-19.91493 1.6213,-8.46811 2.9906,-15.44093 3.0428,-15.49514 0.1237,-0.12835 27.1415,5.03059 42.1955,8.05708 6.4604,1.29878 11.7807,2.32176 11.8229,2.27328 0.081,-0.0926 7.7492,-37.02021 7.8756,-37.92534 0.1125,-0.8046 -43.3991,-9.3931 -82.5249,-16.28912 -8.9663,-1.58032 -16.8603,-2.92718 -17.5424,-2.99302 l -1.2402,-0.11971 -0.8218,4.5284 c -0.4518,2.49062 -4.8362,27.10703 -9.7429,54.70312 -4.9067,27.59609 -12.4968,70.20806 -16.8668,94.69326 -4.3701,24.48519 -7.945,44.7815 -7.9443,45.1029 0,0.48561 2.5503,1.03314 15.0864,3.24023 23.4224,4.12377 40.6627,7.37092 64.5483,12.15755 12.0897,2.42277 22.0758,4.31945 22.191,4.2149 0.1153,-0.1046 2.0323,-8.89684 4.2599,-19.53833 z m -167.7738,-38.97767 c 2.4405,-15.54149 7.7872,-49.53169 11.8818,-75.53378 4.0945,-26.00209 7.788,-49.47734 8.2075,-52.16721 0.4197,-2.68988 0.7973,-4.93439 0.8392,-4.9878 0.065,-0.0831 21.2553,3.22776 36.703,5.73488 2.6513,0.43028 4.9126,0.69015 5.0252,0.57749 0.2525,-0.25242 6.6668,-38.3682 6.4871,-38.54788 -0.3226,-0.32256 -43.3018,-7.22295 -64.6959,-10.38704 -26.4281,-3.90859 -67.4614,-9.3412 -67.7894,-8.97497 -0.2435,0.27194 -5.3773,38.93558 -5.1966,39.13596 0.06,0.0664 4.3204,0.66646 9.4677,1.33329 12.7129,1.647 30.8632,4.12382 32.1268,4.38406 0.9805,0.20195 1.0212,0.28732 0.8171,1.71556 -3.197,22.36783 -17.6097,122.32113 -21.7386,150.75924 -0.6943,4.782 -1.1493,8.78919 -1.0111,8.90488 0.1381,0.11569 7.3427,1.2325 16.0101,2.48179 8.6673,1.24929 18.0411,2.64648 20.8306,3.10488 2.7895,0.4584 5.6403,0.80881 6.335,0.77867 l 1.2633,-0.0548 z m -1024.2244,23.60265 20.6495,-2.99353 -0.079,-0.88549 c -0.079,-0.89011 -6.323,-45.37848 -9.3483,-66.60791 -0.8922,-6.25987 -1.5814,-11.41881 -1.5317,-11.4643 0.05,-0.0455 3.3508,-0.51319 7.3359,-1.03931 18.0337,-2.38097 26.5462,-4.64154 36.9517,-9.81287 15.5957,-7.75075 25.4684,-19.42954 29.3327,-34.6986 4.2442,-16.77013 0.067,-41.65761 -9.3685,-55.8145 -8.1996,-12.30286 -19.7932,-19.45141 -36.2664,-22.36173 -5.521,-0.97537 -17.8456,-1.33427 -24.7761,-0.72148 -8.842,0.78178 -67.4998,9.04439 -68.0396,9.58412 -0.093,0.0933 0.5717,4.95126 1.4779,10.79531 14.7712,95.25289 29.2081,188.69706 29.2081,189.05266 0,0.55038 -1.8014,0.77375 24.4533,-3.03237 z m 2.2228,-130.74469 c -3.7675,-26.58404 -5.6644,-40.12343 -5.6644,-40.43007 0,-0.44957 11.8151,-1.87931 15.4694,-1.87194 4.2458,0.009 6.5004,0.48393 9.8898,2.08519 8.4771,4.00502 13.8854,15.64461 13.9312,29.98263 0.02,6.13212 -0.6428,9.38145 -2.7907,13.68913 -2.5727,5.15986 -7.0488,8.9376 -12.98,10.95491 -2.0048,0.68189 -13.3138,2.70752 -15.1158,2.70752 -0.1726,0 -1.4053,-7.70282 -2.7395,-17.11737 z m 867.7742,118.39387 c 13.6028,-1.63064 25.0048,-6.91612 34.9447,-16.19897 12.0037,-11.2101 18.7103,-27.73927 18.7183,-46.13326 0,-8.96826 -1.5939,-16.73622 -5.1789,-25.17793 -4.3405,-10.22094 -10.013,-17.31116 -28.2588,-35.32155 -10.6152,-10.47821 -13.7481,-14.02558 -16.6896,-18.89713 -2.6419,-4.37541 -3.3297,-6.56318 -3.3413,-10.62806 -0.01,-3.04893 0.1018,-3.65333 0.9676,-5.29758 1.2464,-2.36713 4.6966,-5.49471 7.6498,-6.93465 9.9257,-4.83957 21.7686,-1.85853 33.3381,8.39173 2.7161,2.40639 7.5009,7.78206 10.1416,11.394 0.9944,1.36003 1.7469,2.10056 1.8409,1.81136 0.088,-0.26905 1.4825,-11.41169 3.1002,-24.76143 1.6177,-13.34974 2.9737,-24.51678 3.0135,-24.81565 0.1767,-1.32875 -13.4325,-8.98392 -20.9197,-11.76726 -4.1041,-1.52571 -10.0211,-3.11851 -15.0541,-4.05246 -4.9886,-0.92569 -21.6442,-0.93794 -26.0837,-0.0192 -13.8143,2.85888 -24.0746,8.24302 -32.497,17.05295 -8.5128,8.90456 -12.8303,19.49267 -13.3911,32.83954 -0.2713,6.45676 0.235,11.18944 1.8882,17.65061 2.7291,10.66579 8.2911,21.46119 16.0296,31.1122 4.3702,5.45018 10.8632,12.63985 20.753,22.97915 11.1648,11.67258 14.2918,15.76052 16.458,21.51554 3.3647,8.93911 0.4129,16.83044 -7.8433,20.96871 -3.9137,1.96166 -6.6471,2.56374 -11.541,2.54212 -10.7734,-0.0476 -22.0204,-5.24182 -32.3201,-14.92655 -2.7664,-2.6012 -7.4427,-7.63756 -9.2577,-9.97049 -0.45,-0.57835 -0.8925,-0.97718 -0.9835,-0.88628 -0.1664,0.16644 -4.5341,45.32903 -4.5341,46.88367 0,1.77632 11.5266,9.94413 19.6749,13.94189 12.2821,6.02583 25.816,8.33041 39.3755,6.70496 z m -731.6089,-4.74457 c 4.9812,-0.50976 14.518,-1.45328 21.1929,-2.09672 11.7835,-1.13589 12.1394,-1.19288 12.2501,-1.96129 0.063,-0.43525 -1.5473,-18.24774 -3.5776,-39.58328 -2.0304,-21.33554 -3.6206,-38.86284 -3.5339,-38.94955 0.087,-0.0867 3.7344,-0.48653 8.106,-0.88851 13.8938,-1.27755 21.2697,-2.59719 29.3284,-5.24721 16.2525,-5.34453 28.2587,-15.03237 34.7608,-28.04869 1.817,-3.63722 3.9856,-10.33099 4.7676,-14.71596 0.9195,-5.15597 0.924,-17.46026 0.01,-23.90997 -3.7403,-26.35747 -17.1268,-42.70437 -39.9055,-48.73057 -12.5787,-3.32774 -22.627,-3.55609 -48.7256,-1.10731 -19.0526,1.78769 -47.8845,4.71064 -48.0704,4.87336 -0.038,0.0334 2.4434,23.20584 5.5148,51.49438 3.0711,28.28854 7.9682,73.44174 10.8823,100.34047 2.914,26.89872 5.3617,49.11833 5.4392,49.3769 0.095,0.31563 0.5295,0.40616 1.3231,0.27546 0.6502,-0.10708 5.2577,-0.61176 10.239,-1.12151 z m 22.4776,-116.1852 c -0.1149,-0.84681 -1.1039,-11.07648 -2.198,-22.73259 -1.0939,-11.65612 -2.2509,-23.93242 -2.5711,-27.28068 -0.3201,-3.34826 -0.4971,-6.17259 -0.3934,-6.27627 0.322,-0.32202 10.407,-1.19943 13.8403,-1.20414 6.7408,-0.009 11.4637,1.78322 15.6171,5.92702 3.9529,3.94383 6.3999,9.54015 7.6969,17.60363 2.0159,12.53151 -0.6266,22.95289 -7.3013,28.79437 -2.2021,1.92713 -6.761,4.25996 -9.8541,5.04235 -1.8382,0.465 -11.9133,1.66596 -13.976,1.66596 -0.4924,0 -0.7027,-0.37637 -0.8604,-1.53965 z m 629.0691,110.57352 c 0,-0.56864 -7.6473,-46.3163 -10.7172,-64.1121 -6.2816,-36.41445 -12.7777,-71.81877 -20.8052,-113.39123 -2.2123,-11.45687 -4.3551,-22.57076 -4.7617,-24.69754 l -0.7394,-3.86688 -2.7718,-0.22488 c -5.5432,-0.44971 -6.9038,-0.54781 -15.4512,-1.11412 -20.6069,-1.36529 -29.722,-1.8702 -29.9494,-1.65897 -0.4878,0.45303 -23.6982,63.16569 -33.8047,91.33732 -9.8177,27.36701 -23.8875,67.8871 -33.6118,96.80046 l -3.741,11.12306 1.8278,0.18766 c 1.0053,0.10322 4.5177,0.27915 7.8053,0.39094 6.3134,0.21469 6.7767,0.2366 23.4976,1.11174 5.8504,0.30618 10.6811,0.50699 10.735,0.44624 0.054,-0.0607 2.1644,-7.03487 4.6902,-15.49803 2.5257,-8.46317 4.6488,-15.44399 4.7176,-15.51294 0.069,-0.0689 3.0346,0.0496 6.5903,0.26329 3.5557,0.21375 7.8507,0.4721 9.5443,0.5741 7.6026,0.45787 27.159,1.72181 32.5964,2.10672 l 5.9856,0.42371 2.287,15.93266 c 1.2579,8.76296 2.3306,15.97611 2.3837,16.02923 0.053,0.0531 3.4256,0.34467 7.4942,0.64792 14.0948,1.05047 34.1621,2.74284 35.9267,3.02982 0.1495,0.0243 0.2717,-0.12338 0.2717,-0.32818 z m -60.6806,-69.19975 c -1.9924,-0.14999 -5.1714,-0.37319 -7.0643,-0.49597 -16.5729,-1.07509 -20.3956,-1.29716 -22.3489,-1.29828 -1.2336,-7.2e-4 -2.3416,-0.16113 -2.4624,-0.35653 -0.3698,-0.59827 26.1548,-85.84176 26.9828,-86.71647 0.1602,-0.16913 0.3864,0.15691 0.5029,0.72454 0.3643,1.77467 6.9486,47.95747 9.6248,67.50902 1.4047,10.26137 2.6428,19.18685 2.7515,19.83441 l 0.1976,1.17739 -2.2806,-0.0527 c -1.2544,-0.029 -3.9109,-0.17541 -5.9034,-0.32541 z m -399.9486,60.5347 c 3.5865,-0.18836 8.7217,-0.43305 11.4116,-0.54375 16.7812,-0.69064 23.7355,-0.99705 23.7845,-1.04795 0.031,-0.0319 -0.078,-3.23685 -0.2417,-7.12222 -0.1636,-3.88538 -0.3977,-9.91721 -0.5201,-13.40408 -0.1223,-3.48687 -0.3763,-10.1708 -0.5644,-14.85316 -0.1882,-4.68237 -0.4299,-10.87723 -0.5373,-13.76635 -0.6273,-16.87784 -1.2781,-33.27938 -1.4506,-36.55795 l -0.1985,-3.7723 5.851,-15.42813 c 9.1876,-24.22651 19.4218,-50.39699 29.4797,-75.38419 5.0929,-12.65237 9.2971,-23.16306 9.3425,-23.3571 0.092,-0.39212 -5.6155,-0.3454 -21.6536,0.17728 -5.579,0.18181 -13.5949,0.44205 -17.8131,0.5783 l -7.6693,0.24773 -1.0839,2.93519 c -0.5961,1.61437 -3.5265,9.53762 -6.5123,17.60723 -2.9856,8.06962 -7.7427,21.11142 -10.5712,28.98179 -2.8285,7.87037 -5.2499,14.49694 -5.3809,14.72573 -0.1312,0.22878 -2.1874,-3.60224 -4.5697,-8.5134 -4.3244,-8.91523 -26.2497,-53.00731 -26.4841,-53.26006 -0.196,-0.21125 -50.8085,2.74414 -51.1182,2.98492 -0.033,0.0257 1.3336,2.41054 3.0371,5.29967 19.3802,32.87068 39.185,67.59463 55.9944,98.17579 l 3.4847,6.33977 0.5568,10.32476 c 0.3061,5.67862 0.6437,12.11801 0.7502,14.30975 0.1835,3.77625 1.0361,20.42452 1.4473,28.25724 0.7519,14.32554 1.2675,24.6406 1.4487,28.98179 0.1164,2.7895 0.2935,5.60164 0.3935,6.2492 0.2151,1.39302 -0.3282,1.34471 9.3869,0.8345 z m 286.1439,-7.71768 c 0.1248,-3.2378 0.32,-8.73981 0.4337,-12.22668 0.1138,-3.48687 0.352,-9.75722 0.5294,-13.93409 0.1773,-4.17688 0.2543,-7.6625 0.1709,-7.74584 -0.2808,-0.28082 -18.5119,-0.87281 -45.9368,-1.49163 -7.3349,-0.1655 -13.379,-0.3586 -13.4314,-0.4291 -0.087,-0.11732 0.1123,-10.93201 0.6467,-35.0499 0.1121,-5.06021 0.2493,-9.24589 0.3049,-9.30151 0.094,-0.0935 12.3787,0.16992 36.2315,0.77702 l 9.6907,0.24666 v -1.40452 c 0,-0.77249 0.2626,-9.19602 0.5878,-18.71896 0.3253,-9.52295 0.5291,-17.37675 0.453,-17.45289 -0.076,-0.0761 -6.0872,-0.31327 -13.358,-0.52697 -7.2707,-0.21371 -15.7463,-0.46617 -18.8347,-0.56104 -3.0884,-0.0948 -7.549,-0.17659 -9.9125,-0.18161 l -4.297,-0.009 0.2349,-15.84941 c 0.2439,-16.46074 0.4954,-24.77065 0.7576,-25.03283 0.1819,-0.18189 35.4084,0.58383 46.5461,1.01177 4.2839,0.16461 7.8518,0.24163 7.9286,0.17119 0.077,-0.0704 0.202,-1.80415 0.2783,-3.85267 0.48,-12.89548 1.2123,-33.6952 1.2123,-34.43574 v -0.87953 l -6.6115,-0.23475 c -3.6363,-0.1291 -12.3172,-0.39525 -19.291,-0.59145 -6.9737,-0.1962 -15.2879,-0.43726 -18.4759,-0.5357 -3.188,-0.0984 -17.6351,-0.29058 -32.1048,-0.42701 l -26.3082,-0.24803 -0.2359,51.95422 c -0.1296,28.57483 -0.3077,57.25246 -0.3957,63.72809 -0.088,6.47561 -0.2068,28.72819 -0.264,49.45016 l -0.104,37.67632 22.2796,0.2213 c 24.9926,0.24822 40.4378,0.56788 58.9493,1.22002 6.9298,0.24413 14.7378,0.46801 17.3512,0.49752 l 4.7517,0.0537 z"
       id="path4998"
       sodipodi:nodetypes="ssssssssscssssssssscssssssssssssssscsssssccsssscsssssssssssssssscssssssssscsssssssssssssssccscssssssssssssssssssssssssssssssssssssssssssssssscsssssssssssssscssssssssssssssscssscsscsssssssscssssssssssssscssssssssssscsssssssssscssscsssssssssssssssssssssscscccssssssssccsscsscscsssssscssscsssscssssssssssssssssssscscsssssscsssssssccssssssssssssssscssssscssssssssscssssssssssssscssssssssssscssssscssssssssscsssssscsssssssscsssssscsssscscsssscssscssscc" />
  </g>
  <eggbot
     layer="0"
     node="0"
     lastpath="0"
     lastpathnc="0"
     totaldeltax="0"
     totaldeltay="0" />
</svg>
