<?xml version="1.0" encoding="UTF-8" standalone="no"?>
<!-- Created with Inkscape (http://www.inkscape.org/) -->

<svg
   width="3200"
   height="800"
   id="svg2825"
   version="1.1"
   inkscape:version="1.1.2 (b8e25be833, 2022-02-05)"
   sodipodi:docname="HappyEaster2.svg"
   xmlns:inkscape="http://www.inkscape.org/namespaces/inkscape"
   xmlns:sodipodi="http://sodipodi.sourceforge.net/DTD/sodipodi-0.dtd"
   xmlns="http://www.w3.org/2000/svg"
   xmlns:svg="http://www.w3.org/2000/svg"
   xmlns:rdf="http://www.w3.org/1999/02/22-rdf-syntax-ns#"
   xmlns:cc="http://creativecommons.org/ns#"
   xmlns:dc="http://purl.org/dc/elements/1.1/">
  <defs
     id="defs2827">
    <inkscape:perspective
       sodipodi:type="inkscape:persp3d"
       inkscape:vp_x="0 : 526.18109 : 1"
       inkscape:vp_y="0 : 1000 : 0"
       inkscape:vp_z="744.09448 : 526.18109 : 1"
       inkscape:persp3d-origin="372.04724 : 350.78739 : 1"
       id="perspective2833" />
    <pattern
       id="EMFhbasepattern"
       patternUnits="userSpaceOnUse"
       width="6"
       height="6"
       x="0"
       y="0" />
  </defs>
  <sodipodi:namedview
     id="base"
     pagecolor="#ffffff"
     bordercolor="#666666"
     borderopacity="1.0"
     inkscape:pageopacity="0.0"
     inkscape:pageshadow="2"
     inkscape:zoom="0.70710678"
     inkscape:cx="1658.8504"
     inkscape:cy="369.99394"
     inkscape:document-units="px"
     inkscape:current-layer="layer1"
     showgrid="false"
     inkscape:window-width="1920"
     inkscape:window-height="1017"
     inkscape:window-x="-8"
     inkscape:window-y="-8"
     inkscape:window-maximized="1"
     inkscape:pagecheckerboard="0">
    <inkscape:grid
       type="xygrid"
       id="grid3332" />
  </sodipodi:namedview>
  <metadata
     id="metadata2830">
    <rdf:RDF>
      <cc:Work
         rdf:about="">
        <dc:format>image/svg+xml</dc:format>
        <dc:type
           rdf:resource="http://purl.org/dc/dcmitype/StillImage" />
      </cc:Work>
    </rdf:RDF>
  </metadata>
  <g
     inkscape:label="Layer 1"
     inkscape:groupmode="layer"
     id="layer1"
     transform="translate(0,-252.36218)"
     style="display:inline">
    <path
       style="fill:#000000;stroke-width:1.81932"
       d="m 1725.7564,1063.3122 c -24.4204,-3.2886 -36.1607,-9.4703 -43.0772,-22.682 -4.5718,-8.7327 -4.5945,-8.8018 -4.9074,-14.9636 -0.1856,-3.6553 -1.6482,-4.8676 -7.9595,-6.5972 -6.5223,-1.7874 -7.1628,-2.3474 -4.0935,-3.5789 2.0013,-0.8031 5.8265,-1.9275 8.5004,-2.4987 3.5428,-0.7568 5.4344,-2.7734 6.9722,-7.433 4.0266,-12.20092 15.221,-23.84856 29.5367,-30.7327 7.2649,-3.49359 16.4838,-6.86035 20.4863,-7.4817 4.0025,-0.62138 8.9146,-1.41933 10.9159,-1.77326 2.0013,-0.35395 4.7508,-0.70617 6.11,-0.78273 1.7444,-0.0982 2.1376,-1.61104 1.3366,-5.14232 -1.0641,-4.69163 -0.9672,-4.78884 1.5565,-1.56133 1.4802,1.89301 2.9255,3.9998 3.2117,4.68179 0.2862,0.68197 8.7174,2.58643 18.7359,4.2321 10.0185,1.64569 26.8017,6.1888 37.2961,10.09585 10.4943,3.90703 19.2603,6.96001 19.48,6.78441 0.2197,-0.17557 -1.9771,-6.43971 -4.8818,-13.92021 -5.2302,-13.46966 -10.4539,-42.98381 -8.506,-48.05999 0.7158,-1.86533 -1.0671,-3.19272 -6.1138,-4.55165 -10.069,-2.71129 -10.3758,-4.85327 -0.8987,-6.27445 6.99,-1.0482 8.2992,-1.92615 9.1213,-6.11658 6.8101,-34.7099 23.2978,-68.53382 55.8174,-114.50676 14.9074,-21.07467 19.7791,-26.3188 11.8308,-12.73525 -20.9002,35.71809 -50.6643,106.68147 -55.068,131.2928 -0.522,2.91768 -1.3219,5.90803 -1.7776,6.64524 -0.4556,0.7372 1.6882,2.21764 4.7639,3.28986 6.5567,2.28568 5.8018,4.76705 -1.9201,6.31144 l -5.4958,1.09916 0.031,16.8742 c 0.02,10.71494 1.3179,21.82941 3.5564,30.44975 1.9389,7.46656 3.289,13.81173 3.0003,14.10041 -0.2886,0.28869 -5.7127,-1.17823 -12.0534,-3.25979 -11.9357,-3.91827 -32.6868,-7.81069 -52.1467,-9.78149 -10.9997,-1.11398 -11.2007,-1.05457 -10.2536,3.03045 l 0.966,4.16671 -3.1664,-4.27438 c -2.8892,-3.9003 -4.0617,-4.17023 -13.3976,-3.0843 -24.1662,2.811 -41.9695,12.17979 -48.2349,25.38309 -3.7288,7.85793 -3.6852,9.71113 0.2528,10.74023 3.0322,0.7924 3.0322,0.8421 0,1.0431 -5.6327,0.3734 -3.8223,7.059 2.2742,8.398 6.6268,1.4555 7.1665,5.8695 0.9096,7.4399 -6.0864,1.5275 -5.7358,3.7175 1.6821,10.5079 13.383,12.2508 50.6741,17.5615 99.4121,14.1574 30.2322,-2.1116 55.9782,-7.6693 84.8538,-18.3173 13.9174,-5.132 15.6478,-5.3714 25.4705,-3.5232 12.2998,2.3144 83.0192,0.923 94.0389,-1.8501 5.6373,-1.4187 8.8036,-1.1108 15.4642,1.5039 45.6184,17.9077 152.2433,22.2687 182.7997,7.4766 8.9737,-4.344 12.7087,-8.9587 14.4475,-17.8499 1.1001,-5.6257 0.8883,-5.9128 -4.3636,-5.9128 -3.2166,0 -5.0506,-0.7592 -4.3954,-1.8194 0.6184,-1.0006 2.8206,-1.8193 4.8937,-1.8193 3.2811,0 3.6374,-0.8127 2.7511,-6.2746 -3.2775,-20.1969 -24.2846,-39.13979 -43.4611,-39.19061 -6.2055,-0.0164 -6.7499,0.41404 -7.2773,5.75491 -0.7857,7.95595 -3.6353,8.18001 -7.7139,0.60656 -2.0149,-3.74161 -4.8214,-6.37924 -6.7875,-6.37924 -2.8097,0 -3.3522,1.47203 -3.3522,9.0966 0,5.00313 -0.6679,9.0966 -1.4843,9.0966 -0.8164,0 -3.3248,-3.27477 -5.5744,-7.27728 -2.2495,-4.0025 -4.86,-7.27728 -5.8011,-7.27728 -3.1674,0 -37.1118,9.4067 -43.3636,12.01699 -3.4057,1.42193 -6.5837,2.19376 -7.0623,1.71517 -1.551,-1.55101 39.7146,-19.16864 55.5536,-23.71763 3.447,-0.98997 4.0935,-2.44031 4.0935,-9.18289 0,-9.58853 3.2455,-9.52844 7.8587,0.14554 2.4163,5.06701 4.0377,6.28765 8.3523,6.28765 3.5692,0 5.6314,-1.06134 6.186,-3.18381 0.697,-2.66698 0.8663,-2.70504 1.0431,-0.23439 0.1506,2.10492 2.7254,3.28297 8.9922,4.11429 23.2348,3.0822 46.231,23.20767 53.7741,47.06102 0.6748,2.1341 2.9751,3.2328 6.9767,3.3323 l 5.9698,0.1484 -5.68,2.4908 c -5.1806,2.2718 -5.7529,3.3691 -6.5082,12.4774 -1.5477,18.6627 -13.4151,29.5601 -37.1789,34.1399 -13.7317,2.6464 -57.1609,2.5742 -77.0756,-0.1281 -33.6203,-4.5621 -59.9104,-10.4447 -87.9339,-19.6759 l -19.7093,-6.4924 -14.8578,4.8069 c -18.4101,5.956 -31.5469,8.4709 -44.2486,8.4709 -9.4875,0 -31.2262,-4.905 -42.9623,-9.6939 -5.3216,-2.1714 -7.0286,-1.7796 -23.1372,5.3097 -20.2443,8.9095 -42.2609,15.8732 -62.7905,19.8603 -20.8286,4.0452 -78.8124,7.0828 -94.6047,4.9561 z m 417.5341,-93.20502 c 0,-2.03054 -1.2129,-3.63864 -2.7444,-3.63864 -2.289,0 -2.3673,0.60381 -0.4721,3.63864 1.2498,2.00125 2.4848,3.63864 2.7445,3.63864 0.2596,0 0.472,-1.63739 0.472,-3.63864 z m 18.8511,-2.72898 c 0.6315,-1.64567 0.01,-2.72898 -1.5676,-2.72898 -1.5768,0 -2.199,1.08331 -1.5676,2.72898 0.576,1.50094 1.2814,2.72898 1.5676,2.72898 0.2862,0 0.9916,-1.22804 1.5676,-2.72898 z m -213.9769,38.3984 c -8.9319,-3.2652 -19.3011,-11.27082 -22.9829,-17.74418 -2.6116,-4.59169 -3.9516,-5.16858 -12.0354,-5.18132 -17.4363,-0.0275 -30.6467,-11.7014 -29.8377,-26.36739 0.3393,-6.14998 -0.6302,-8.41174 -6.1595,-14.37049 -12.0133,-12.94618 -12.4879,-33.13649 -0.9795,-41.67532 5.6676,-4.20518 20.4069,-6.04682 26.9705,-3.36989 4.0566,1.6545 3.6269,1.86749 -3.9751,1.97034 -9.7211,0.13153 -15.9595,2.11656 -20.3034,6.46053 -3.8164,10.45172 -5.3046,14.43048 1.4646,28.07922 6.9763,13.76696 19.9307,16.89563 30.7229,7.41999 9.8617,-8.65872 9.942,-6.33564 0.114,3.29821 -8.7673,8.59414 -9.0813,8.72879 -16.9665,7.27586 -4.4187,-0.81418 -8.3473,-1.16695 -8.7304,-0.78391 8.8662,17.88456 1.5763,3.74588 10.477,18.50609 2.4536,2.9564 12.0287,7.74463 21.4528,10.72788 3.7243,1.17896 4.0275,0.93018 2.4526,-2.01259 -1.6828,-3.14429 -2.7586,-12.01199 -2.3382,-19.27317 0.3061,-5.28818 3.5879,-3.56847 3.4717,1.81932 -0.1486,6.8997 3.7487,20.46736 5.8793,20.46736 0,0 -2.354,-1.74548 7.2737,8.25555 3.9548,4.08035 6.5404,5.56435 7.3663,4.22795 0.8306,-1.34389 1.9948,-0.70988 3.3516,1.82527 2.5101,4.69019 13.6298,5.33599 22.598,1.31235 3.1531,-1.41463 8.8604,-3.54378 12.6828,-4.73141 3.8224,-1.18766 7.3696,-3.25331 7.8827,-4.59035 0.513,-1.33704 2.089,-1.98732 3.502,-1.44507 3.9133,1.50165 15.9507,-11.3536 14.7895,-15.79419 -0.52,-1.9881 -0.2033,-3.6147 0.7037,-3.6147 0.9069,0 1.649,-3.36236 1.649,-7.47193 0,-6.42195 -0.4475,-7.2806 -3.1839,-6.11032 -7.1225,3.04609 -12.937,2.8005 -20.6025,-0.87024 -14.6444,-6.63786 -31.2437,-27.86866 -19.8907,-42.83996 0.9906,-1.19365 1.4791,-2.50427 1.0854,-2.91253 -0.3936,-0.40824 1.2509,-2.2132 3.6544,-4.011 2.4036,-1.79782 4.3702,-2.41184 4.3702,-1.36449 0,1.04733 -0.7194,1.90425 -1.5986,1.90425 -13.1937,4.30803 -2.582,39.3008 4.6411,37.4275 1.4324,-0.54967 2.1296,-0.23117 1.5493,0.70778 -1.4727,2.38282 5.818,5.94731 14.1277,6.90716 5.0571,0.58415 7.9973,-0.11898 10.7085,-2.56091 4.2029,-3.78553 7.7521,-11.21369 7.1285,-14.91946 -0.2291,-1.36102 0.4692,-1.9112 1.5656,-1.23356 1.1588,0.71612 3.0922,-1.44061 4.6641,-5.20278 2.1328,-5.10443 2.2471,-7.38688 0.556,-11.09849 -6.0044,-5.52726 -10.4546,-15.16369 -21.5104,-26.50851 0,-1.05968 1.0234,-1.34873 2.2742,-0.64234 1.2507,0.70637 -1.0007,-2.15184 -5.0032,-6.3516 -4.5962,-4.82271 -8.4273,-7.33588 -10.3989,-6.8215 -1.7169,0.44791 -2.9449,-0.12499 -2.7289,-1.27316 0.5026,-2.67248 -13.3953,-2.20309 -18.6913,0.63128 -2.7755,1.48537 -3.5335,3.1495 -2.7485,6.03372 0.9453,3.47331 0.8286,3.57548 -0.9126,0.79887 -2.4475,-3.90283 -4.3688,-4.00955 -7.9375,-0.44088 -8.2988,5.0569 2.005,-6.82785 3.1488,-7.96153 15.1766,-14.89476 28.6949,-11.53484 50.5642,12.56765 28.1728,31.04955 29.2418,37.29435 10.5771,61.78513 -3.9377,5.16685 -4.5773,7.36514 -3.3918,11.65741 2.1526,7.79402 -1.5769,22.28254 -7.4607,28.9839 -5.8472,6.65959 -32.4449,20.6763 -41.858,22.0588 -3.5022,0.5143 -9.4394,-0.1878 -13.1937,-1.5602 z m 132.1867,-27.89908 c 0.6873,-1.22976 2.3788,-8.16184 3.7589,-15.40465 4.3418,-22.78668 -0.8177,-52.80547 -14.9481,-86.97036 -2.6901,-6.50407 -5.4096,-12.23493 -6.0433,-12.73525 -0.6337,-0.50031 -1.9617,-3.36574 -2.951,-6.36762 -1.5716,-4.76878 -2.6972,-5.48383 -8.9145,-5.66287 -3.9138,-0.11262 -7.8905,-0.31738 -8.8373,-0.45483 -0.9467,-0.13754 0.9665,-3.02306 4.2516,-6.41245 7.3234,-7.55586 5.5478,-9.09488 -8.472,-7.34322 l -10.4267,1.30275 6.8417,-7.57293 6.8417,-7.5729 -3.4934,-6.79294 c -1.9214,-3.73612 -10.0784,-16.01705 -18.1267,-27.29096 -8.0483,-11.27391 -15.1455,-21.50759 -15.7714,-22.74151 -1.8798,-3.70563 22.344,22.07911 34.1412,36.34121 8.7183,10.53988 11.5044,12.86436 13.4671,11.2355 1.607,-1.33376 2.4746,-1.391 2.4746,-0.16319 0,1.03976 -0.9816,2.21766 -2.1812,2.61755 -1.4726,0.49087 -0.8219,2.63594 2.003,6.60317 3.9346,5.52575 4.6613,5.80454 12.1874,4.67592 9.3453,-1.40142 10.361,0.73293 3.0758,6.46347 -6.4933,5.10765 -3.9089,10.33015 4.672,9.44111 6.5487,-0.67848 7.276,1.34293 2.1518,5.98027 -3.5294,3.19401 -3.5229,3.29997 0.7162,11.6653 11.8476,23.38014 18.5422,54.77962 16.7663,78.63786 -1.0703,14.37871 -6.8777,33.31383 -11.6634,38.02858 -1.5235,1.50094 -2.2076,1.72283 -1.5203,0.49306 z M 2075.066,848.2127 c 0.6184,-1.00063 -0.152,-1.81932 -1.712,-1.81932 -1.56,0 -2.8363,0.81869 -2.8363,1.81932 0,1.00062 0.7703,1.81932 1.7119,1.81932 0.9416,0 2.2179,-0.8187 2.8364,-1.81932 z m -185.1553,41.71842 c 1.7151,-6.55836 17.1591,-20.67394 25.258,-23.08541 7.9423,-2.36485 18.0658,-0.77758 25.3086,3.9681 2.479,1.62429 4.5072,3.23802 4.5072,3.5861 0,0.34805 -3.8075,-0.0784 -8.4611,-0.94789 -14.345,-1.42916 -34.7359,7.52395 -41.1783,14.08797 -5.8121,5.98387 -6.447,6.26321 -5.4344,2.39113 z m -45.85,-116.45952 c 0.9885,-8.30312 0.9633,-8.34899 -6.4145,-11.6759 -9.318,-4.20187 -19.1772,-15.0124 -24.6898,-27.0722 -4.9485,-10.82569 -8.8911,-33.50441 -7.4107,-42.62749 l 1.0249,-6.31542 -11.5495,1.07851 c -15.7355,1.46941 -30.5941,6.98965 -44.7039,16.60832 -6.504,4.43383 -13.2583,8.61128 -15.0094,9.28319 -8.0106,3.07375 0.088,-6.6983 12.747,-15.38102 8.5873,-5.88996 26.4213,-12.76814 40.2663,-15.52987 l 12.0275,-2.39916 -13.3242,-0.21235 c -15.1782,-0.24188 -33.6573,5.07844 -50.3393,14.49313 -5.4834,3.09466 -10.9357,5.30472 -12.1162,4.91124 -3.4544,-1.15147 6.7253,-9.41459 19.0529,-15.46574 15.4844,-7.60072 28.3025,-10.37573 48.2831,-10.45285 l 17.0269,-0.0657 3.1391,-10.00626 c 1.7265,-5.50345 5.3881,-14.91843 8.1368,-20.92219 5.4881,-11.98743 31.1982,-54.78425 33.9232,-56.4684 2.5057,-1.54859 2.0796,1.45356 -0.7916,5.57744 -4.1392,5.94526 -18.6797,40.65732 -24.627,58.79129 -7.7252,23.5554 -9.9407,38.13239 -8.7017,57.25564 1.2803,19.76197 6.52,31.81635 18.7164,43.0586 7.88,7.2635 8.4187,7.47339 11.0138,4.29087 2.5921,-3.17901 2.6845,-3.14049 1.8479,0.77108 -1.0475,4.89749 1.5232,6.54063 19.7134,12.60031 l 12.7352,4.24251 -12.7352,-1.16924 c -7.0044,-0.64308 -14.6137,-1.87319 -16.9095,-2.73358 -3.7038,-1.38811 -4.5769,-0.69484 -7.7493,6.15341 l -3.5751,7.71776 0.9925,-8.33589 z m 171.0586,-6.85474 c 0.9506,-0.85015 5.2852,-2.92119 9.6324,-4.60234 35.9233,-13.89218 51.8569,-44.95583 44.0785,-85.93413 -2.3023,-12.12887 -12.8784,-40.93594 -14.6314,-39.85257 -0.7807,0.48252 -1.4195,-0.9561 -1.4195,-3.19696 0,-4.41777 -15.524,-31.87253 -25.3382,-44.8114 -3.3446,-4.40952 -5.6637,-8.43477 -5.1535,-8.94498 1.1228,-1.12275 -0.526,-3.00279 15.9687,18.2082 7.5361,9.69088 15.5725,20.94793 17.8587,25.01566 3.4302,6.10322 5.1317,7.40554 9.7345,7.45121 5.0758,0.0504 5.2504,0.23822 1.9392,2.08763 -2.0013,1.11777 -3.8402,2.18133 -4.0865,2.36346 -0.2463,0.18214 1.9045,4.76888 4.7797,10.19278 2.8752,5.42389 6.6353,13.66654 8.3559,18.31698 l 3.1284,8.45535 21.201,0.6625 c 20.2024,0.63132 21.9063,0.99557 36.1717,7.7324 8.2338,3.88842 16.2694,8.50507 17.8568,10.25921 5.1661,5.70843 -0.4404,5.73253 -11.3902,0.0489 -15.3132,-7.9485 -24.689,-10.85798 -38.3859,-11.91188 l -12.1604,-0.93562 11.8255,3.33827 c 19.7179,5.56618 43.6637,19.72615 43.6637,25.81975 0,2.82675 -1.8707,2.1298 -14.6299,-5.45031 -15.817,-9.3967 -27.7028,-13.98042 -40.3489,-15.56046 l -10.2712,-1.2833 0.084,15.2037 c 0.1444,26.02347 -9.2704,45.06621 -27.071,54.75449 -4.8485,2.63891 -16.0527,6.89526 -24.8982,9.45858 -17.6909,5.12664 -19.0255,5.37869 -16.4942,3.11484 z m 92.5362,-196.43964 c -15.5482,-5.3748 -26.8802,-14.01806 -39.8708,-30.41069 -6.709,-8.46609 -13.3313,-15.3929 -14.7161,-15.3929 -2.8047,0 -9.0286,9.10253 -19.2815,28.19947 -7.6869,14.31756 -8.9264,14.46056 -2.9233,0.33726 4.888,-11.49992 14.198,-26.39698 19.4424,-31.11011 3.8321,-3.44381 3.9314,-3.43357 8.8197,0.90966 2.7191,2.41599 6.1564,6.03009 7.6383,8.03134 16.3484,22.07811 38.4637,35.47675 58.5565,35.47675 14.1838,0 22.3292,-4.70771 29.594,-17.10403 5.1382,-8.76769 8.8264,-26.35024 5.0359,-24.00759 -1.1581,0.71572 -2.1056,0.4343 -2.1056,-0.62538 0,-1.05968 1.2281,-1.92669 2.729,-1.92669 3.9842,0 3.5795,-17.92448 -0.7906,-35.01128 -9.7175,-37.99495 -38.8764,-73.09055 -70.686,-85.0775 -11.0885,-4.17856 -35.4052,-4.82963 -45.8696,-1.22813 -5.1447,1.77065 -6.2538,3.00025 -5.7751,6.40263 0.5338,3.79388 0.2043,4.00333 -3.3259,2.114 -6.4012,-3.42582 -9.7203,-0.93458 -8.5297,6.40226 1.1473,7.07003 -0.979,8.16882 -6.3688,3.29109 -3.1844,-2.88185 -3.7069,-2.66985 -9.7914,3.97283 -12.5154,13.66367 -21.8547,29.69903 -31.4493,53.99782 -10.5998,26.84466 -22.384,76.269 -18.4938,77.56574 1.0256,0.34183 1.8646,1.22819 1.8646,1.96967 0,0.74146 -5.2933,0.587 -11.7628,-0.34325 -7.1802,-1.03243 -15.5384,-1.04091 -21.4538,-0.0218 l -9.6909,1.66961 -0.1326,-6.48111 c -0.073,-3.56461 -0.2563,-28.58585 -0.4075,-55.60277 -0.2575,-46.01272 -2.0835,-71.26502 -7.3705,-101.9287 -5.003,-29.0164 -23.6818,-82.30917 -27.9289,-79.68431 -1.1664,0.72087 -1.4981,0.0844 -0.8442,-1.61966 2.7513,-7.16979 -22.6878,-35.69917 -38.1405,-42.77363 -8.5382,-3.90889 -11.6964,-4.43915 -20.7827,-3.48944 -26.9354,2.81531 -41.5774,21.60492 -43.8852,56.31659 -0.6978,10.49588 -0.6593,10.59046 5.3403,13.09724 7.5011,3.13414 7.7045,5.56224 0.5852,6.98608 -7.082,1.41642 -7.9288,8.45984 -1.017,8.45984 6.5127,0 7.4361,3.27237 1.3924,4.93432 l -5.2123,1.43338 2.4307,14.55456 c 4.8623,29.11535 14.6959,62.55496 26.8058,91.1545 5.7162,13.49972 6.3982,14.33957 11.3091,13.92615 5.1725,-0.43543 5.1859,-0.41104 1.3065,2.38058 l -3.9196,2.82053 7.9403,16.99162 c 10.103,21.61992 28.1105,63.90162 28.0593,65.88342 -0.022,0.83078 -4.3599,-6.67643 -9.6408,-16.6827 -5.2809,-10.00626 -15.5102,-28.19148 -22.7316,-40.41158 -10.5642,-17.87665 -13.7464,-21.9874 -16.2846,-21.03639 -2.6858,1.00632 -2.8066,0.75358 -0.813,-1.70046 1.9589,-2.41137 1.4578,-4.62286 -3.0655,-13.53071 -12.3665,-24.35359 -24.8948,-66.17194 -30.3849,-101.42223 l -3.0153,-19.36003 -7.9846,-2.01053 c -12.7636,-3.21393 -12.2013,-4.97275 2.5385,-7.93935 8.3369,-1.67793 7.3611,-5.5352 -2.729,-10.78761 l -8.6418,-4.49846 8.6418,-0.0847 8.6417,-0.0847 v -7.02896 c 0,-18.83035 7.65,-40.09205 18.9092,-52.55463 14.6583,-16.22502 40.6269,-20.23322 62.2191,-9.60341 12.2491,6.03021 26.4344,19.94581 35.7546,35.07474 5.1278,8.32371 9.0121,10.65256 11.3792,6.82245 0.6185,-1.00063 2.0375,-1.81932 3.1535,-1.81932 1.116,0 0.1272,2.02447 -2.1973,4.49883 l -4.2264,4.49882 4.64,10.51057 c 18.714,42.39088 25.2565,94.09368 23.6281,186.72447 l -0.891,50.6808 4.3205,-1.55914 c 5.3079,-1.91547 19.0184,-2.02989 25.4874,-0.21268 4.7584,1.33667 4.8024,1.25749 6.0722,-10.91593 5.4195,-51.95723 21.6241,-94.69542 46.7589,-123.32237 4.8255,-5.49603 5.229,-6.72096 3.0743,-9.33309 -2.2165,-2.68706 -2.0906,-2.79925 1.1842,-1.05515 5.8566,3.11901 10.6063,-1.29235 8.2015,-7.61724 -4.0371,-10.61846 -0.3128,-13.6005 7.1135,-5.69566 4.8851,5.20002 9.8582,4.32637 8.2454,-1.44852 -0.8043,-2.88007 -0.6259,-3.2156 0.6934,-1.30385 1.5233,2.20736 3.1606,2.15401 11.4899,-0.37442 15.3519,-4.66014 26.0499,-5.51161 39.2758,-3.12601 24.2339,4.37114 48.2648,19.84466 65.4859,42.16638 16.9419,21.95986 29.5753,56.06482 29.5753,79.84107 0,12.88025 1.0421,14.4582 9.5486,14.4582 6.9204,0 -0.4571,2.93516 -8.8058,3.50344 -1.0924,0.0744 -2.9934,3.61465 -4.2245,7.86731 -2.9485,10.18558 -11.9087,23.36175 -19.3578,28.46595 -13.4078,9.18718 -31.4659,11.46219 -47.3626,5.96689 z M 1768.0177,328.60715 c -0.6045,-0.60455 -2.1737,-0.66918 -3.487,-0.14364 -1.4513,0.58078 -1.0203,1.01188 1.0992,1.09917 1.9178,0.079 2.9924,-0.35099 2.3878,-0.95554 z"
       id="path6284"
       sodipodi:nodetypes="ssssssssssssssssssssscssssssccssssscsssssssssssssssssssssssssssssssssssssscssssscsssssssssssssssssssssssssccsssccssssccssssssssssccsssccssssssccsssssssccssssssssssssssscccssssssssssssssssssssssssssccssssscssssscssssscsssssssssscsssccssssssssssssssscssssscsssscssssssssssssssssssssssssssssssscsssssssssssscsssscscsssssscssscccssssssscsscsssssssssssssssssssssssss" />
  </g>
  <eggbot
     layer="0"
     node="0"
     lastpath="0"
     lastpathnc="0"
     totaldeltax="0"
     totaldeltay="0" />
</svg>
