<?xml version="1.0" encoding="UTF-8" standalone="no"?>
<!-- Created with Inkscape (http://www.inkscape.org/) -->

<svg
   width="3200"
   height="800"
   id="svg2825"
   version="1.1"
   inkscape:version="1.1.2 (b8e25be833, 2022-02-05)"
   sodipodi:docname="HASE1.svg"
   xmlns:inkscape="http://www.inkscape.org/namespaces/inkscape"
   xmlns:sodipodi="http://sodipodi.sourceforge.net/DTD/sodipodi-0.dtd"
   xmlns="http://www.w3.org/2000/svg"
   xmlns:svg="http://www.w3.org/2000/svg"
   xmlns:rdf="http://www.w3.org/1999/02/22-rdf-syntax-ns#"
   xmlns:cc="http://creativecommons.org/ns#"
   xmlns:dc="http://purl.org/dc/elements/1.1/">
  <defs
     id="defs2827">
    <inkscape:perspective
       sodipodi:type="inkscape:persp3d"
       inkscape:vp_x="0 : 526.18109 : 1"
       inkscape:vp_y="0 : 1000 : 0"
       inkscape:vp_z="744.09448 : 526.18109 : 1"
       inkscape:persp3d-origin="372.04724 : 350.78739 : 1"
       id="perspective2833" />
    <pattern
       id="EMFhbasepattern"
       patternUnits="userSpaceOnUse"
       width="6"
       height="6"
       x="0"
       y="0" />
  </defs>
  <sodipodi:namedview
     id="base"
     pagecolor="#ffffff"
     bordercolor="#666666"
     borderopacity="1.0"
     inkscape:pageopacity="0.0"
     inkscape:pageshadow="2"
     inkscape:zoom="0.70710678"
     inkscape:cx="1836.5985"
     inkscape:cy="360.08593"
     inkscape:document-units="px"
     inkscape:current-layer="layer1"
     showgrid="false"
     inkscape:window-width="1920"
     inkscape:window-height="1017"
     inkscape:window-x="-8"
     inkscape:window-y="-8"
     inkscape:window-maximized="1"
     inkscape:pagecheckerboard="0">
    <inkscape:grid
       type="xygrid"
       id="grid3332" />
  </sodipodi:namedview>
  <metadata
     id="metadata2830">
    <rdf:RDF>
      <cc:Work
         rdf:about="">
        <dc:format>image/svg+xml</dc:format>
        <dc:type
           rdf:resource="http://purl.org/dc/dcmitype/StillImage" />
      </cc:Work>
    </rdf:RDF>
  </metadata>
  <g
     inkscape:label="Layer 1"
     inkscape:groupmode="layer"
     id="layer1"
     transform="translate(0,-252.36218)"
     style="display:inline">
    <path
       style="display:inline;fill:none;stroke:#2b2b2b;stroke-width:2;stroke-miterlimit:4;stroke-dasharray:none"
       d="m 1647.1275,428.72608 -13.3075,-1.90107 1.9011,15.20858 c 13.3817,-9.63083 16.1097,-17.05642 22.7007,-28.68719 3.0988,-5.46368 5.2717,-9.35137 8.1822,-15.03748 8.6138,-16.83209 19.5126,-36.80933 29.5921,-53.23004 20.1894,-32.88818 45.3824,-62.1318 72.6001,-89.35041 13.2486,-13.24819 28.3355,-34.37615 45.6257,-41.98633 12.7543,-5.61349 39.7952,10.28176 51.329,15.86274 30.1377,14.58256 55.9751,32.96212 79.8451,56.54798 16.6001,16.40321 31.8942,34.98847 47.5268,51.32173 m -439.1479,121.66866 c -68.699,-39.09556 -155.1274,-61.82479 -228.1287,-22.22544 -32.1395,17.43283 -53.4621,47.06866 -83.6471,65.95011 0.3602,-17.3625 7.0187,-37.76291 12.6797,-55.13111 11.6143,-35.63371 26.3993,-69.75036 50.5984,-98.85578 8.6666,-10.42415 21.8673,-31.06144 35.5777,-34.64325 16.7326,-4.37152 48.6161,12.19348 64.6364,17.5336 46.5896,15.53024 91.0918,36.30288 131.174,64.90452 18.0145,12.85505 39.4169,28.99326 55.1311,43.45662 m 262.3481,197.71156 -39.9226,-1.90107 c 1.2833,-16.26938 5.3269,-35.94738 3.2604,-53.23004 -3.9827,-33.30109 -16.7029,-63.70304 -38.3142,-89.35042 -22.2787,-26.43821 -56.9923,-42.26845 -84.7138,-57.03218 10.0434,-16.06026 27.5732,-35.10711 41.8255,-49.42788 30.5636,-30.71126 59.3573,-56.95158 102.656,-67.19475 31.9799,-7.56513 63.4427,-4.53159 95.0537,3.26965 16.3188,4.02724 39.8541,13.60979 55.1311,12.59613 m -363.1048,55.13111 2.5854,19.01073 3.1177,15.20858 m -41.8235,-20.9118 26.6149,39.92252 c 7.4846,-11.36651 1.6635,-16.61157 -5.7032,-15.20858 m 47.5268,-24.71394 v 3.80214 m -32.3181,5.70322 c -0.2225,4.93899 -0.048,5.60246 -1.9011,13.30751 m 34.2192,-5.70321 c -2.6367,6.88568 -4.0739,11.95964 -7.6042,22.81286 m -51.329,-20.91179 1.9011,1.90107 m 0,1.90107 -13.3075,3.80214 m 11.4064,-1.90107 3.8022,22.81288 m 91.2514,-15.20859 -3.8021,3.80215 m -157.789,9.50536 c -11.3856,8.75254 -24.9269,16.41386 -36.1204,26.78612 -17.2827,16.01463 -31.0807,33.73073 -41.3332,54.96001 -8.5415,17.69138 -12.8645,37.43212 -13.7238,57.03218 -0.5893,13.45199 1.7262,27.66631 1.827,39.92253 -18.6419,-2.74325 -38.7021,-7.6043 -58.9333,-7.6043 m -144.4815,-115.96543 -1.9011,3.80215 m 576.025,115.96543 28.5161,-1.90107 m 11.4065,32.31823 -43.7247,-5.70322 c 0.6337,-3.80214 2.9786,-6.23982 3.8021,-13.3075 -18.5603,1.51516 -48.4393,21.12282 -64.6364,17.10965 18.4651,-11.30188 45.1618,-24.48582 64.6364,-28.51609 m -370.7091,3.80215 1.901,11.40644 c -13.1687,-1.0475 -42.2608,-7.22788 -64.6364,-1.90108 m 62.7354,-9.50536 39.9225,22.81287 c -16.0608,2.81275 -46.1779,-22.63181 -33.8183,-2.25 -6.0511,9.29815 -46.4241,4.05982 -66.9386,11.75536 m 62.7354,-20.91179 4.2032,9.15643 m 299.9685,4.15107 c 15.5717,5.09678 44.9774,-3.75842 60.8343,-3.80215 -5.9618,17.50698 -18.4955,39.43776 -34.2193,52.34604 -6.0663,4.98272 -26.0714,13.41588 -25.7386,21.9726 0.3916,10.05287 18.0488,25.29948 23.8299,34.04251 14.1668,21.42509 23.465,45.3729 29.1872,70.33969 6.7545,29.47803 8.3894,66.1117 -0.1863,95.05363 -5.9447,20.05822 -15.5451,40.30465 -23.2901,58.93327 8.3077,1.94291 14.7884,1.64063 19.0107,-5.70322 m 0,5.70322 c 13.1726,3.8934 30.8335,2.08357 45.6258,5.48839 28.3089,6.51878 56.4371,18.47076 77.944,38.40736 9.5757,8.8761 29.6625,26.6587 19.6684,41.4453 -10.2714,15.199 -45.2873,11.6136 -61.4921,11.6136 -46.348,0 -92.4091,-1.8973 -138.7782,-1.9011 -20.5297,0 -49.3975,0.8936 -66.3322,-12.6193 -15.9482,-12.7258 -6.4561,-31.8905 -8.1196,-48.215 -1.247,-12.2467 -14.488,-23.06376 -24.404,-28.96281 -14.8987,-8.86466 -32.8316,-8.61186 -47.5269,0.69959 -13.5717,8.60044 -19.9897,20.34522 -26.6149,30.16432 -11.3818,-7.0853 -26.4174,-17.2731 -43.7247,-22.75773 -12.3171,-3.90483 -31.035,-3.54172 -41.472,-10.9711 -10.0223,-7.13285 -15.161,-23.52575 -19.2616,-34.70977 -17.5507,-47.87091 -18.986,-104.22631 -0.4601,-152.08581 10.2183,-26.3983 31.7157,-57.5911 49.7872,-76.04291 -15.2846,-9.35328 -30.7688,-18.17426 -43.3939,-32.31824 -9.4616,-10.59848 -19.4993,-27.16546 -20.8415,-40.27145 7.3663,3.23145 30.1815,11.6451 35.7194,2.25 m 127.3718,41.8236 c 0,0 0.7017,19.3459 6.224,19.03786 5.5223,-0.30804 2.7574,-17.49091 2.7725,-17.49091 -2.4751,7.43009 6.8616,35.95992 9.1339,1.84099 M 1580.59,683.46982 c 10.8475,9.66886 39.4261,28.89678 40.8035,-10.82395 m 41.8437,11.69895 c -9.5434,8.5073 -37.2365,31.40138 -41.8437,-11.69895 m -107.3411,48.84541 30.4172,8.69741 60.8344,8.24115 91.2514,-4.75269 51.329,-12.18587 m -24.7139,76.04291 c -10.0909,16.4861 -41.875,63.35324 -26.6151,79.84505 l 3.8022,-5.70322 M 1533.0632,803.2374 c 11.8132,20.03351 28.8487,45.01171 32.111,68.43862 1.5057,10.8095 -1.808,26.64734 -15.0014,24.71394 m 222.4255,-47.52681 c -15.6078,15.60781 -30.7669,33.02164 -51.3289,42.20382 -13.9387,6.2241 -25.2101,-1.12164 -26.6151,-13.68773 m -211.019,-20.9118 c 16.3758,16.37584 43.7247,51.35368 70.3396,43.72467 m 1.9011,-17.10965 7.6044,1.90107 m 144.4815,0 -1.9011,7.60429 m 106.4601,36.12038 3.8021,-1.90107 m -1.9011,7.60429 3.8021,-1.90107 m -3.8021,7.60429 h 5.7032 m -1.9011,9.50536 3.8022,1.90107 m -11.4064,9.50537 3.8021,1.90107 m -7.6042,3.80215 v 5.70322 m -507.5864,81.74612 c -6.7715,-4.7508 -2.021,-11.1555 2.7915,-17.1078 9.5173,-11.7752 22.3841,-20.3738 35.2299,-28.1302 26.6264,-16.07729 58.2793,-25.09981 89.3504,-25.10173 15.5755,0 37.9207,0.20725 51.329,1.90111 m 193.9094,30.41712 c 16.1553,-13.7352 43.9775,-23.1265 66.5375,-27.35447 12.5908,-2.35923 28.7746,-4.73365 39.9225,-4.96376 m -207.2169,36.12043 c 0.2586,12.9405 2.019,42.3159 -22.8128,51.1312 -24.5961,8.7298 -54.1768,5.9009 -79.8451,5.9009 -39.9549,0 -79.7424,1.9011 -119.7676,1.9011 -19.7169,0 -55.3054,0.078 -57.0322,-22.8128 m 650.1669,3.8021 h 1.9011 m -648.2658,7.6042 15.2085,-5.7032 m 615.9477,3.8022 13.3074,1.901"
       id="path918"
       sodipodi:nodetypes="ccccccssssccccssssscccccccssccccccccccccccccccccccscsccccccccccccccccccccccccsccccccscssscccccccsccccczcccccccccccccccsccscccccccccccccccccccccscccscccssccccccc" />
    <ellipse
       style="fill:none;stroke:#000000;stroke-width:2;stroke-linecap:round;stroke-linejoin:round;stroke-miterlimit:4;stroke-dasharray:none"
       id="path1833"
       cx="1593.625"
       cy="612.98718"
       rx="6.625"
       ry="10.875" />
    <ellipse
       style="fill:none;stroke:#000000;stroke-width:2;stroke-linecap:round;stroke-linejoin:round;stroke-miterlimit:4;stroke-dasharray:none"
       id="path1835"
       cx="1649.25"
       cy="611.86218"
       rx="6.75"
       ry="12.25" />
    <ellipse
       style="fill:none;stroke:#000000;stroke-width:1.66955;stroke-linecap:round;stroke-linejoin:round;stroke-miterlimit:4;stroke-dasharray:none"
       id="path2249"
       ry="9.5445862"
       rx="7.5231247"
       cy="661.99152"
       cx="1622.8579" />
  </g>
  <eggbot
     layer="0"
     node="0"
     lastpath="0"
     lastpathnc="0"
     totaldeltax="0"
     totaldeltay="0" />
</svg>
